<svg xmlns="http://www.w3.org/2000/svg" width="112" height="36" viewBox="0 0 112 36">
  <defs>
    <style>
      .cls-1 {
        fill: none;
      }

      .cls-2 {
        fill: #b3a294;
      }

      .cls-3 {
        fill: #5f9089;
      }

      .cls-4 {
        fill: #af1240;
      }

      .cls-5 {
        fill: #004682;
      }

      .cls-6 {
        fill: #837022;
      }

      .cls-7 {
        fill: #6ca854;
      }

      .cls-8 {
        fill: #b2a998;
      }

      .cls-9 {
        fill: #3d2610;
      }

      .cls-10 {
        fill: #8ba018;
      }

      .cls-11 {
        fill: #3e7482;
      }

      .cls-12 {
        fill: #cc721e;
      }

      .cls-13 {
        fill: #c8885a;
      }

      .cls-14 {
        fill: #ffd400;
      }

      .cls-15 {
        fill: #ca9067;
      }

      .cls-16 {
        fill: #43312b;
      }

      .cls-17 {
        fill: #fff;
      }
    </style>
  </defs>
  <g id="logo" transform="translate(-15 -20)">
    <rect id="사각형_613" data-name="사각형 613" class="cls-1" width="112" height="36" transform="translate(15 20)"/>
    <g id="그룹_7940" data-name="그룹 7940" transform="translate(-523.213 88.798)">
      <g id="그룹_7904" data-name="그룹 7904" transform="translate(538.213 -68.798)">
        <g id="그룹_7903" data-name="그룹 7903">
          <g id="그룹_7902" data-name="그룹 7902">
            <path id="패스_141" data-name="패스 141" class="cls-2" d="M213.241,408.1l1.889,6.658h.305l-.706-6.972Z" transform="translate(-200.097 -398.184)"/>
            <path id="패스_142" data-name="패스 142" class="cls-3" d="M209.321,406.355l3.33,7.66.211-.111-2.311-7.921Z" transform="translate(-198.092 -397.263)"/>
            <path id="패스_143" data-name="패스 143" class="cls-4" d="M200.885,401.877a1.254,1.254,0,0,0-.588.171,1.07,1.07,0,0,0-.583.868l6.249,9.874.606-.4-5.264-10.376A.638.638,0,0,0,200.885,401.877Z" transform="translate(-193.181 -395.165)"/>
            <path id="패스_144" data-name="패스 144" class="cls-5" d="M205.2,404.69l4.376,8.47.571-.284-3.788-8.555Z" transform="translate(-195.983 -396.414)"/>
            <path id="패스_145" data-name="패스 145" class="cls-6" d="M222.552,414.985l-1.684-.27-.916,7.551.663.066Z" transform="translate(-203.528 -401.72)"/>
            <path id="패스_146" data-name="패스 146" class="cls-7" d="M217.424,410.172l.768,8.745.348-.036.885-8.485Z" transform="translate(-202.236 -399.4)"/>
            <path id="패스_147" data-name="패스 147" class="cls-8" d="M223.669,421.345l-1.1-.3-2.034,6.512.751.256Z" transform="translate(-203.825 -404.949)"/>
            <path id="패스_148" data-name="패스 148" class="cls-9" d="M190.215,402.083l9.337,10.4-9.016-10.654Z" transform="translate(-188.324 -395.142)"/>
            <path id="패스_149" data-name="패스 149" class="cls-9" d="M196.047,412.016l6.487,5.614-6.376-5.736Z" transform="translate(-191.305 -400.282)"/>
            <path id="패스_150" data-name="패스 150" class="cls-9" d="M186.344,388.269l11.642,17.15.041-.027-11.519-17.219Z" transform="translate(-186.344 -388.174)"/>
            <path id="패스_151" data-name="패스 151" class="cls-10" d="M233.44,432.316l-.545-.15-1.247,4.545-.01.4.272.091Z" transform="translate(-209.504 -410.624)"/>
            <path id="패스_152" data-name="패스 152" class="cls-9" d="M243.672,415.768l-.255-.182-8.648,13.856Z" transform="translate(-211.105 -402.147)"/>
            <path id="패스_153" data-name="패스 153" class="cls-11" d="M237.129,425.938a1.074,1.074,0,0,0-.55-.139,1.327,1.327,0,0,0-.292.032l-4.388,9.479.281.193,5.462-9.008A1.066,1.066,0,0,0,237.129,425.938Z" transform="translate(-209.637 -407.369)"/>
            <path id="패스_154" data-name="패스 154" class="cls-12" d="M224.966,425.026l-1-.412-2.708,6.856.864.324Z" transform="translate(-204.197 -406.772)"/>
            <path id="패스_155" data-name="패스 155" class="cls-13" d="M225.206,428.844l-2.794,6.483.8.271,2.747-6.391Z" transform="translate(-204.786 -408.925)"/>
            <path id="패스_156" data-name="패스 156" class="cls-14" d="M226.529,433.867l-1.741,6.434.907.169L227.113,434Z" transform="translate(-206.001 -411.494)"/>
            <path id="패스_157" data-name="패스 157" class="cls-15" d="M229.2,436.692l-.157,6.195.945-.016.167-6.648-.859.028Z" transform="translate(-208.176 -412.698)"/>
          </g>
          <path id="패스_158" data-name="패스 158" class="cls-4" d="M199.438,399.805c-.061-.153-.146-.193-.255-.123-.148.1-.125.163-.05.3l-.118,1.052a.386.386,0,0,0,.087.2.391.391,0,0,0,.142.091,1.308,1.308,0,0,1,.594-.627,1.476,1.476,0,0,1,.7-.2h.009c.032-.121-.127-.289-.19-.327Z" transform="translate(-192.823 -394.033)"/>
          <path id="패스_159" data-name="패스 159" class="cls-11" d="M242.5,423.7c.1-.132.087-.225-.029-.281-.159-.076-.2-.021-.281.114l-.957.451a.388.388,0,0,0-.125.179.38.38,0,0,0,0,.169,1.306,1.306,0,0,1,.845.177,1.481,1.481,0,0,1,.536.489l0,.008c.12-.037.18-.26.179-.333Z" transform="translate(-214.337 -406.152)"/>
        </g>
        <path id="패스_160" data-name="패스 160" class="cls-16" d="M257.9,426.606l.929-1.1a5.511,5.511,0,0,1-3.115-5.213v-1.264H255.6v0h-1.991c-.077,0-.259.06-.146.143.093.068.293.135.435.225a.23.23,0,0,1,.118.237v.549a5.965,5.965,0,0,1-.831,3.214,8.1,8.1,0,0,1-2.708,2.548l1.012,1.049a9.152,9.152,0,0,0,1.989-1.515,6.3,6.3,0,0,0,1.387-1.933,6.034,6.034,0,0,0,1.255,1.749A7.683,7.683,0,0,0,257.9,426.606Zm23.019-5.745h5.962a40.325,40.325,0,0,1-.343,6h1.485a61.956,61.956,0,0,0,.44-7.378h-9.107a2.214,2.214,0,0,0,.5,1.161A1.867,1.867,0,0,0,280.917,420.861Zm-5.764-2.149H273.18c-.078,0-.26.059-.147.142.093.068.293.136.436.225a.211.211,0,0,1,.118.193v8.367h1.566v-4.065h2.054v-1.4h-2.054Zm21.2,7.843a3.167,3.167,0,0,0,2.251-3.048,3.047,3.047,0,0,0-1.077-2.3h1.729v-1.331h-2.968v-1.632h-2.04c-.078,0-.26.059-.146.142.092.068.292.136.434.225.121.075.12.145.12.29v.251h0v.724h-3.132v1.331H293.3a3.132,3.132,0,0,0-1.043,2.3,3.181,3.181,0,0,0,2.43,3.115v1.249c-.456.017-.913.017-1.321.017h-2.333V429.2l2.9-.017a60.033,60.033,0,0,0,6.328-.4v-1.282c-.914.117-2.4.217-3.914.3Zm-2.708-3.1a1.779,1.779,0,1,1,1.777,1.849A1.868,1.868,0,0,1,293.645,423.458Zm-8.251.733h-1.452v4.13H282v-4.13h-1.452v4.13h-3.262V429.7h11.963l.007-.007a1.277,1.277,0,0,0,.7-.217,2.188,2.188,0,0,0,.5-1.153l-5.064,0Zm17.159,5.689h0V418.729H300.59c-.078,0-.259.06-.147.142.093.068.293.137.435.225.12.076.12.145.12.289v.252h0v11.75l0,0v.034a2.682,2.682,0,0,0,1.3-.493,1.186,1.186,0,0,0,.245-.716h0v-.034A2.444,2.444,0,0,0,302.553,429.88Zm-29.929-4.739a44.5,44.5,0,0,1-5.17.4h-1.289v-1.865h4.322v-4.43l-6.188,0a2.1,2.1,0,0,0,.476,1.1,1.13,1.13,0,0,0,.614.2v.011h3.484v1.866H264.55v4.462h1.925a43.325,43.325,0,0,0,6.149-.466Zm2.529,6.978v-3.7h-7.959v1.332h6.377v3.9l0,0v.04a2.73,2.73,0,0,0,1.326-.5,1.673,1.673,0,0,0,.255-1.066Zm-15.1-13.281c.093.068.294.136.435.225a.213.213,0,0,1,.119.2v2.112h-2.757v1.383H260.6v5.029h1.566V418.7H260.2C260.119,418.7,259.937,418.755,260.051,418.838Zm-1.681,8.768a3.358,3.358,0,1,0,3.475,3.364A3.422,3.422,0,0,0,258.369,427.605Zm-.048,5.329a1.911,1.911,0,0,1-1.892-1.966,1.955,1.955,0,0,1,1.94-1.982,1.929,1.929,0,0,1,1.908,1.982A1.965,1.965,0,0,1,258.321,432.935Z" transform="translate(-219.135 -403.507)"/>
      </g>
      <g id="그룹_7915" data-name="그룹 7915" transform="translate(601.561 -40.415)">
        <g id="그룹_7906" data-name="그룹 7906" transform="translate(26.007 0.218)">
          <g id="그룹_7905" data-name="그룹 7905">
            <path id="패스_161" data-name="패스 161" class="cls-16" d="M371.577,449.863a3.022,3.022,0,0,1-.935.14,1.545,1.545,0,0,1-1.754-1.742q0-1.648,1.754-1.648a2.994,2.994,0,0,1,.935.14v.374a2.486,2.486,0,0,0-.889-.164q-1.367,0-1.367,1.3a1.219,1.219,0,0,0,1.367,1.391,2.475,2.475,0,0,0,.889-.164Z" transform="translate(-368.888 -446.613)"/>
            <path id="패스_162" data-name="패스 162" class="cls-16" d="M375.753,450V446.66h.432v1.473h2.023V446.66h.431V450h-.431v-1.519h-2.023V450Z" transform="translate(-372.398 -446.637)"/>
            <path id="패스_163" data-name="패스 163" class="cls-16" d="M383.1,448.713V446.66h.432v2.053a.959.959,0,1,0,1.918,0V446.66h.432v2.053q0,1.314-1.391,1.314T383.1,448.713Z" transform="translate(-376.153 -446.637)"/>
            <path id="패스_164" data-name="패스 164" class="cls-16" d="M390.224,450V446.66h1.427q.952,0,.953.8,0,.652-.933.966L392.819,450h-.571l-1.063-1.5v-.282q.959-.152.958-.736,0-.464-.533-.463h-.954V450Z" transform="translate(-379.797 -446.637)"/>
            <path id="패스_165" data-name="패스 165" class="cls-16" d="M398.822,449.863a3.026,3.026,0,0,1-.935.14,1.545,1.545,0,0,1-1.753-1.742q0-1.648,1.753-1.648a3,3,0,0,1,.935.14v.374a2.488,2.488,0,0,0-.888-.164q-1.369,0-1.368,1.3a1.219,1.219,0,0,0,1.368,1.391,2.476,2.476,0,0,0,.888-.164Z" transform="translate(-382.818 -446.613)"/>
            <path id="패스_166" data-name="패스 166" class="cls-16" d="M403,450V446.66h.433v1.473h2.022V446.66h.432V450h-.432v-1.519h-2.022V450Z" transform="translate(-386.329 -446.637)"/>
            <path id="패스_167" data-name="패스 167" class="cls-17" d="M374.27,447.508v-.15l-.114.111" transform="translate(-371.581 -446.994)"/>
            <path id="패스_168" data-name="패스 168" class="cls-17" d="M376.424,453.387h.1v-.11" transform="translate(-372.741 -450.02)"/>
            <path id="패스_169" data-name="패스 169" class="cls-17" d="M390.9,453.387h.105v-.11" transform="translate(-380.145 -450.02)"/>
            <path id="패스_170" data-name="패스 170" class="cls-17" d="M403.669,453.387h.1v-.11" transform="translate(-386.672 -450.02)"/>
            <path id="패스_171" data-name="패스 171" class="cls-17" d="M401.515,447.508v-.15l-.115.111" transform="translate(-385.512 -446.994)"/>
            <path id="패스_172" data-name="패스 172" class="cls-17" d="M383.87,446.636l-.106-.023.106.11" transform="translate(-376.494 -446.613)"/>
          </g>
        </g>
        <g id="그룹_7914" data-name="그룹 7914">
          <g id="그룹_7907" data-name="그룹 7907" transform="translate(3.529 0.167)">
            <path id="패스_173" data-name="패스 173" class="cls-16" d="M322.893,448.642v-2.086h.439v2.086a.974.974,0,1,0,1.947,0v-2.086h.44v2.086q0,1.334-1.414,1.335T322.893,448.642Z" transform="translate(-322.893 -446.532)"/>
            <path id="패스_174" data-name="패스 174" class="cls-17" d="M323.685,446.531l-.1-.023.1.083" transform="translate(-323.246 -446.508)"/>
          </g>
          <g id="그룹_7908" data-name="그룹 7908" transform="translate(11.159 0.147)">
            <path id="패스_175" data-name="패스 175" class="cls-16" d="M341.238,449.753a2.463,2.463,0,0,1-.886.157q-1.845,0-1.846-1.769,0-1.675,1.781-1.675a3.072,3.072,0,0,1,.951.143v.38a2.532,2.532,0,0,0-.9-.167q-1.389,0-1.389,1.318a1.23,1.23,0,0,0,1.368,1.413,2.351,2.351,0,0,0,.484-.057v-1.154h.44Z" transform="translate(-338.506 -446.466)"/>
            <path id="패스_176" data-name="패스 176" class="cls-17" d="M343.375,450.306" transform="translate(-340.996 -448.429)"/>
            <path id="패스_177" data-name="패스 177" class="cls-17" d="M343.2,450.306v.071l.087-.071" transform="translate(-340.904 -448.429)"/>
          </g>
          <g id="그룹_7909" data-name="그룹 7909" transform="translate(14.827 0.191)">
            <path id="패스_178" data-name="패스 178" class="cls-16" d="M346.01,449.952v-3.4h1.449q.968,0,.969.815,0,.662-.948.98l1.166,1.6h-.579l-1.081-1.528v-.287q.973-.155.973-.748,0-.47-.541-.471h-.97v3.033Z" transform="translate(-346.01 -446.556)"/>
            <path id="패스_179" data-name="패스 179" class="cls-17" d="M346.786,453.336v.083h-.116" transform="translate(-346.347 -450.023)"/>
          </g>
          <g id="그룹_7910" data-name="그룹 7910" transform="translate(17.93 0.191)">
            <path id="패스_180" data-name="패스 180" class="cls-16" d="M352.361,449.952l1.442-3.4h.487l1.448,3.4h-.463l-.452-1.069h-1.135l.121-.356h.847l-.626-1.515-1.214,2.94Z" transform="translate(-352.361 -446.556)"/>
            <path id="패스_181" data-name="패스 181" class="cls-17" d="M353.191,453.419h-.1l.134-.083" transform="translate(-352.735 -450.023)"/>
          </g>
          <g id="그룹_7911" data-name="그룹 7911">
            <path id="패스_182" data-name="패스 182" class="cls-16" d="M315.846,449.633v-.424a3.577,3.577,0,0,0,1.212.2q.92,0,.92-.673,0-.574-.678-.574h-.509q-1.12,0-1.12-.972,0-1.023,1.434-1.023a4.3,4.3,0,0,1,1.16.15v.424a3.29,3.29,0,0,0-1.16-.2q-.972,0-.972.649,0,.573.659.574h.509q1.14,0,1.14.973,0,1.048-1.382,1.047A4.69,4.69,0,0,1,315.846,449.633Z" transform="translate(-315.671 -446.166)"/>
            <path id="패스_183" data-name="패스 183" class="cls-17" d="M320.9,447.231v-.1l-.076.078" transform="translate(-318.305 -446.657)"/>
          </g>
          <g id="그룹_7912" data-name="그룹 7912" transform="translate(7.291 0.191)">
            <path id="패스_184" data-name="패스 184" class="cls-16" d="M330.591,449.952v-3.4h.439l2.078,2.712v-2.712h.415v3.4h-.439l-2.078-2.712v2.712Z" transform="translate(-330.591 -446.556)"/>
            <path id="패스_185" data-name="패스 185" class="cls-17" d="M331.318,453.336v.083H331.2" transform="translate(-330.903 -450.023)"/>
          </g>
          <g id="그룹_7913" data-name="그룹 7913" transform="translate(21.775 0.174)">
            <path id="패스_186" data-name="패스 186" class="cls-16" d="M360.669,446.522v3.4h-.44v-3.4Zm2.341,0-1.522,1.584,1.722,1.813h-.658l-1.5-1.658v-.266l1.406-1.473Z" transform="translate(-360.229 -446.522)"/>
            <path id="패스_187" data-name="패스 187" class="cls-17" d="M361.021,453.3v.084H360.9" transform="translate(-360.574 -449.989)"/>
          </g>
        </g>
      </g>
    </g>
  </g>
</svg>
