<svg width="22" height="22" viewBox="0 0 22 22" fill="none" xmlns="http://www.w3.org/2000/svg">
<path d="M0.99997 12.13V9.83C0.99997 9.83 1.02997 9.79 1.03997 9.77C1.19997 9.22 1.56997 8.91 2.13997 8.83C2.57997 8.77 3.02997 8.71 3.47997 8.67C3.62997 8.66 3.68997 8.6 3.73997 8.46C3.83997 8.18 3.95997 7.9 4.07997 7.63C4.12997 7.53 4.12997 7.46 4.04997 7.37C3.75997 7.01 3.47997 6.64 3.19997 6.28C2.76997 5.72 2.80997 5.07 3.30997 4.57C3.71997 4.15 4.13997 3.74 4.54997 3.33C5.05997 2.82 5.69997 2.78 6.27997 3.21C6.64997 3.49 7.00997 3.77 7.36997 4.06C7.45997 4.13 7.52997 4.13 7.62997 4.08C7.90997 3.95 8.18997 3.84 8.47997 3.73C8.59997 3.69 8.64997 3.62 8.65997 3.49C8.70997 3.04 8.76997 2.6 8.81997 2.15C8.90997 1.44 9.40997 1 10.13 1C10.73 1 11.33 1 11.93 1C12.55 1 13.05 1.42 13.15 2.02C13.23 2.51 13.28 3 13.34 3.49C13.35 3.61 13.39 3.67 13.51 3.71C13.8 3.82 14.09 3.94 14.37 4.07C14.47 4.12 14.54 4.11 14.63 4.04C14.99 3.76 15.35 3.48 15.71 3.2C16.28 2.76 16.92 2.8 17.44 3.3C17.86 3.71 18.27 4.12 18.68 4.54C19.19 5.06 19.23 5.7 18.78 6.28C18.51 6.64 18.23 6.99 17.95 7.34C17.88 7.43 17.87 7.51 17.92 7.62C18.05 7.89 18.16 8.17 18.26 8.45C18.31 8.59 18.38 8.64 18.52 8.65C19 8.7 19.48 8.76 19.95 8.84C20.56 8.94 20.98 9.44 20.98 10.06C20.98 10.68 20.98 11.31 20.98 11.93C20.98 12.55 20.56 13.05 19.95 13.15C19.48 13.23 19 13.29 18.52 13.34C18.37 13.36 18.3 13.42 18.25 13.56C18.15 13.84 18.04 14.1 17.91 14.37C17.86 14.48 17.86 14.55 17.94 14.65C18.22 15 18.49 15.36 18.77 15.71C19.22 16.3 19.18 16.94 18.66 17.47C18.25 17.88 17.84 18.29 17.43 18.7C16.92 19.2 16.27 19.24 15.7 18.8C15.34 18.52 14.98 18.24 14.62 17.96C14.53 17.89 14.47 17.88 14.36 17.93C14.08 18.06 13.79 18.18 13.5 18.29C13.4 18.33 13.34 18.38 13.33 18.49C13.29 18.84 13.25 19.19 13.2 19.54C13.16 19.87 13.14 20.2 12.93 20.48C12.72 20.76 12.44 20.91 12.11 21.01H9.83997C9.83997 21.01 9.78997 20.98 9.76997 20.98C9.20997 20.83 8.88997 20.47 8.79997 19.91C8.72997 19.45 8.67997 18.99 8.62997 18.54C8.61997 18.41 8.56997 18.34 8.43997 18.29C8.15997 18.19 7.87997 18.07 7.60997 17.95C7.49997 17.9 7.42997 17.9 7.32997 17.98C6.96997 18.27 6.60997 18.54 6.24997 18.82C5.67997 19.26 5.02997 19.22 4.51997 18.71C4.09997 18.3 3.68997 17.88 3.27997 17.47C2.76997 16.96 2.73997 16.32 3.17997 15.74C3.45997 15.37 3.74997 15.01 4.01997 14.64C4.05997 14.59 4.06997 14.48 4.04997 14.42C3.93997 14.12 3.80997 13.82 3.67997 13.52C3.64997 13.45 3.55997 13.38 3.48997 13.37C3.04997 13.3 2.59997 13.25 2.14997 13.2C1.79997 13.16 1.47997 13.04 1.26997 12.75C1.13997 12.57 1.06997 12.35 0.969971 12.15L0.99997 12.13ZM10.88 15.16C13.13 15.26 15.06 13.45 15.17 11.13C15.28 8.87 13.46 6.93 11.13 6.83C8.86997 6.73 6.93997 8.55 6.83997 10.86C6.73997 13.13 8.54997 15.05 10.88 15.16Z" stroke="#231815" stroke-linecap="round" stroke-linejoin="round"/>
</svg>
