<svg width="28" height="28" viewBox="0 0 28 28" fill="none" xmlns="http://www.w3.org/2000/svg">
<path d="M22 4H6C4.9 4 4 4.9 4 6V8.59H24V6C24 4.9 23.1 4 22 4Z" fill="#313131"/>
<path d="M4 9.58984V21.9998C4 23.0998 4.9 23.9998 6 23.9998H22C23.1 23.9998 24 23.0998 24 21.9998V9.58984H4ZM9.23 20.7098H7.23V18.7098H9.23V20.7098ZM9.23 17.2898H7.23V15.2898H9.23V17.2898ZM13.08 20.7098H11.08V18.7098H13.08V20.7098ZM13.08 17.2898H11.08V15.2898H13.08V17.2898ZM13.08 13.8698H11.08V11.8698H13.08V13.8698ZM16.93 20.7098H14.93V18.7098H16.93V20.7098ZM16.93 17.2898H14.93V15.2898H16.93V17.2898ZM16.93 13.8698H14.93V11.8698H16.93V13.8698ZM20.78 17.2898H18.78V15.2898H20.78V17.2898ZM20.78 13.8698H18.78V11.8698H20.78V13.8698Z" fill="#313131"/>
</svg>
