<svg width="28" height="28" viewBox="0 0 28 28" fill="none" xmlns="http://www.w3.org/2000/svg">
<path fill-rule="evenodd" clip-rule="evenodd" d="M12.6706 3.62927C13.4603 2.79024 14.7937 2.79024 15.5834 3.62927L24.5358 13.1412C24.8849 13.5122 25.0794 14.0024 25.0794 14.5119V23.5042C25.0794 24.6088 24.1839 25.5042 23.0794 25.5042H18.0952C16.9907 25.5042 16.0952 24.6088 16.0952 23.5042V18.5748L16.0951 18.572C16.0949 18.5642 16.0941 18.5478 16.0923 18.5241C16.0887 18.4764 16.0809 18.4011 16.0643 18.3079C16.0304 18.1172 15.9643 17.8766 15.8419 17.6469C15.7221 17.4225 15.5547 17.2188 15.313 17.0678C15.0746 16.9188 14.7068 16.785 14.127 16.785C12.7008 16.785 12.2258 17.3204 12.0295 17.6681C11.9096 17.8803 11.852 18.1019 11.8263 18.2778C11.8137 18.3637 11.8096 18.4325 11.8085 18.475C11.8079 18.4955 11.8081 18.5092 11.8082 18.5151L11.8095 18.5364V23.5042C11.8095 24.6088 10.9141 25.5042 9.80952 25.5042H5C3.89543 25.5042 3 24.6088 3 23.5042V14.6974C3 14.188 3.19443 13.6977 3.5436 13.3267L12.6706 3.62927ZM17.0952 18.5677H18.0952V23.5042H23.0794V14.5119L14.127 5L5 14.6974L5 23.5042L9.80952 23.5042V18.5892C9.80919 18.5798 9.80888 18.5692 9.80863 18.5574C9.8079 18.5222 9.80772 18.4763 9.8092 18.4213C9.81215 18.3116 9.82174 18.163 9.84735 17.988C9.898 17.6421 10.015 17.1681 10.288 16.6846C10.8774 15.6409 12.0611 14.785 14.127 14.785C15.0313 14.785 15.7766 14.999 16.373 15.3718C16.9662 15.7425 17.3552 16.2345 17.6066 16.7058C17.8551 17.1718 17.9746 17.6269 18.0334 17.9579C18.0632 18.1256 18.0786 18.2677 18.0866 18.3722C18.0905 18.4246 18.0927 18.468 18.0939 18.5009C18.0945 18.5174 18.0948 18.5313 18.095 18.5425L18.0952 18.5572L18.0952 18.563L18.0952 18.5655L18.0952 18.5666C18.0952 18.5666 18.0952 18.5677 17.0952 18.5677Z" fill="#313131"/>
</svg>
