<svg width="28" height="28" viewBox="0 0 28 28" fill="none" xmlns="http://www.w3.org/2000/svg">
<path d="M14.7999 22.4696C12.2599 20.9996 10.0899 19.0796 8.16991 16.8796C6.97991 15.5096 5.93991 14.0396 5.11991 12.4096C4.59991 11.3596 4.17991 10.2796 4.03991 9.10964C3.92991 8.25964 3.97991 7.42964 4.48991 6.68964C4.51991 6.64964 4.53991 6.60964 4.56991 6.57964C5.27991 5.86964 5.96991 5.13964 6.69991 4.45964C7.32991 3.87964 8.33991 3.86964 9.03991 4.35964C9.18991 4.45964 9.32991 4.57964 9.45991 4.70964C10.3199 5.56964 11.1899 6.42964 12.0399 7.28964C12.7299 7.97964 12.8399 8.96964 12.3199 9.72964C12.1099 10.0396 11.8299 10.2596 11.4699 10.3896C10.7599 10.6496 10.2799 11.1196 10.1299 11.8796C10.0499 12.3096 10.1899 12.6996 10.3399 13.0896C10.7399 14.1296 11.4099 14.9896 12.1899 15.7696C12.9799 16.5596 13.8599 17.2196 14.8999 17.6496C15.5999 17.9296 16.2699 17.9196 16.8999 17.4796C17.2299 17.2496 17.4499 16.9396 17.5699 16.5696C17.9699 15.3396 19.6299 14.8996 20.6399 15.8996C21.5799 16.8196 22.5099 17.7596 23.4299 18.6896C23.7399 18.9996 23.9299 19.3796 23.9499 19.8396C23.9499 19.8796 23.9699 19.9296 23.9899 19.9696V20.0896C23.9899 20.0896 23.9599 20.1696 23.9499 20.2196C23.9099 20.7196 23.7099 21.1396 23.3699 21.4896C22.7899 22.0896 22.1899 22.6696 21.5999 23.2596C21.3299 23.5296 21.0299 23.7396 20.6699 23.8496C20.4199 23.9296 20.1799 24.0396 19.9199 24.0396C17.6499 24.0396 15.6599 22.9896 14.7899 22.4796L14.7999 22.4696Z" stroke="black" stroke-width="2" stroke-miterlimit="10"/>
</svg>
