<svg width="28" height="28" viewBox="0 0 28 28" fill="none" xmlns="http://www.w3.org/2000/svg">
<path d="M23 4H5C4.45 4 4 4.45 4 5V18C4 18.55 4.45 19 5 19H10.63L9.61 23.09C9.52 23.44 9.92 23.72 10.22 23.52L17 19H23C23.55 19 24 18.55 24 18V5C24 4.45 23.55 4 23 4Z" stroke="#313131" stroke-width="2" stroke-miterlimit="10"/>
<path d="M8.29004 12.5C8.84232 12.5 9.29004 12.0523 9.29004 11.5C9.29004 10.9477 8.84232 10.5 8.29004 10.5C7.73775 10.5 7.29004 10.9477 7.29004 11.5C7.29004 12.0523 7.73775 12.5 8.29004 12.5Z" fill="#313131" stroke="#313131" stroke-miterlimit="10"/>
<path d="M14 12.5C14.5523 12.5 15 12.0523 15 11.5C15 10.9477 14.5523 10.5 14 10.5C13.4477 10.5 13 10.9477 13 11.5C13 12.0523 13.4477 12.5 14 12.5Z" fill="#313131" stroke="#313131" stroke-miterlimit="10"/>
<path d="M19.71 12.5C20.2622 12.5 20.71 12.0523 20.71 11.5C20.71 10.9477 20.2622 10.5 19.71 10.5C19.1577 10.5 18.71 10.9477 18.71 11.5C18.71 12.0523 19.1577 12.5 19.71 12.5Z" fill="#313131" stroke="#313131" stroke-miterlimit="10"/>
</svg>
