<svg width="28" height="28" viewBox="0 0 28 28" fill="none" xmlns="http://www.w3.org/2000/svg">
<path d="M19.0402 24.0299C18.5502 23.9199 18.0502 23.8399 17.5602 23.6999C16.5902 23.4199 15.6802 22.9799 14.8102 22.4799C12.2702 21.0099 10.1002 19.0899 8.18017 16.8899C6.99017 15.5199 5.95017 14.0499 5.13017 12.4199C4.61017 11.3599 4.19017 10.2699 4.05017 9.10987C3.94017 8.25987 3.99017 7.42987 4.50017 6.68987C4.53017 6.64987 4.55017 6.60987 4.58017 6.57987C5.28017 5.86987 5.97017 5.12987 6.70017 4.44987C7.33017 3.86987 8.34017 3.85987 9.04017 4.34987C9.19017 4.44987 9.33017 4.56987 9.46017 4.69987C10.3202 5.55987 11.1902 6.41987 12.0402 7.27987C12.7302 7.96987 12.8402 8.95987 12.3202 9.71987C12.1102 10.0299 11.8302 10.2499 11.4702 10.3799C10.7602 10.6399 10.2802 11.1099 10.1302 11.8699C10.0502 12.2999 10.1902 12.6899 10.3402 13.0799C10.7402 14.1199 11.4102 14.9799 12.1902 15.7599C12.9802 16.5499 13.8602 17.2099 14.9002 17.6399C15.6002 17.9199 16.2702 17.9099 16.9002 17.4699C17.2302 17.2399 17.4502 16.9299 17.5702 16.5599C17.9702 15.3299 19.6302 14.8899 20.6402 15.8899C21.5802 16.8099 22.5102 17.7499 23.4302 18.6799C23.7402 18.9899 23.9302 19.3699 23.9502 19.8299C23.9502 19.8699 23.9702 19.9199 23.9902 19.9599V20.0799C23.9902 20.0799 23.9602 20.1599 23.9502 20.2099C23.9102 20.7099 23.7102 21.1299 23.3702 21.4799C22.7902 22.0799 22.1902 22.6599 21.6002 23.2499C21.3302 23.5199 21.0302 23.7299 20.6702 23.8399C20.4202 23.9199 20.1702 23.9699 19.9202 24.0299H19.0202H19.0402Z" fill="#313131"/>
</svg>
