<svg width="28" height="28" viewBox="0 0 28 28" fill="none" xmlns="http://www.w3.org/2000/svg">
<path fill-rule="evenodd" clip-rule="evenodd" d="M14.0001 8.08208C13.1868 8.08208 12.4545 7.58958 12.1477 6.83632C12.1487 6.83859 12.1481 6.83748 12.1457 6.83319C12.1314 6.80718 12.0528 6.66421 11.861 6.44544C11.6545 6.20995 11.3674 5.94541 11.0098 5.7079C10.3041 5.23922 9.37027 4.90177 8.22463 5.02614C6.55022 5.20791 5.51838 6.00062 4.8789 6.96602C4.19827 7.99354 3.93786 9.26825 4.01218 10.2853C4.09016 11.3522 4.21242 12.1772 4.77794 13.2395C5.37982 14.37 6.54749 15.8796 8.95047 18.0927C11.2204 20.1831 12.808 21.5434 13.8194 22.3629C13.9049 22.4321 13.9674 22.441 14.0001 22.441C14.0328 22.441 14.0953 22.4321 14.1808 22.3629C15.1922 21.5433 16.7798 20.1831 19.0497 18.0927C21.4527 15.8796 22.6203 14.37 23.2222 13.2395C23.7877 12.1772 23.91 11.3522 23.988 10.2853C24.062 9.27252 23.7993 7.99776 23.1155 6.96792C22.4721 5.99912 21.4384 5.2074 19.7747 5.02604C18.8061 4.92046 17.8632 5.23409 17.0697 5.7399C16.6783 5.98937 16.3578 6.26492 16.1291 6.50635C15.9175 6.72973 15.8473 6.85671 15.845 6.85551C15.8446 6.85524 15.8473 6.84896 15.8524 6.83632C15.5457 7.58958 14.8134 8.08208 14.0001 8.08208ZM12.6535 4.43995C13.3698 5.03011 13.8323 5.67001 14.0001 6.08208C14.1647 5.67777 14.6599 5.05902 15.391 4.48215C16.495 3.61118 18.1369 2.83567 19.9914 3.03782C24.5703 3.53694 26.1893 7.60422 25.9827 10.431C25.8084 12.8159 25.3629 14.9974 20.4046 19.5638C18.1132 21.6741 16.4928 23.0636 15.4399 23.9168C14.5773 24.6157 13.4229 24.6157 12.5603 23.9168C11.5074 23.0636 9.88702 21.6741 7.59559 19.5638C2.63729 14.9974 2.19179 12.8159 2.0175 10.431C1.81091 7.60422 3.41107 3.53695 8.00878 3.03782C10.0151 2.82001 11.6059 3.5768 12.6535 4.43995Z" fill="#313131"/>
</svg>
