<svg width="28" height="28" viewBox="0 0 28 28" fill="none" xmlns="http://www.w3.org/2000/svg">
<path d="M22.95 4H4.05C3.4725 4 3 4.48239 3 5.07198V19.0077C3 19.5972 3.4725 20.0796 4.05 20.0796H9.9615L8.8905 24.464C8.796 24.8392 9.216 25.1394 9.531 24.925L16.65 20.0796H22.95C23.5275 20.0796 24 19.5972 24 19.0077V5.07198C24 4.48239 23.5275 4 22.95 4ZM7.5045 13.1118C6.927 13.1118 6.4545 12.6294 6.4545 12.0398C6.4545 11.4502 6.927 10.9678 7.5045 10.9678C8.082 10.9678 8.5545 11.4502 8.5545 12.0398C8.5545 12.6294 8.082 13.1118 7.5045 13.1118ZM13.5 10.9678C14.0775 10.9678 14.55 11.4502 14.55 12.0398C14.55 12.6294 14.0775 13.1118 13.5 13.1118C12.9225 13.1118 12.45 12.6294 12.45 12.0398C12.45 11.4502 12.9225 10.9678 13.5 10.9678ZM19.4955 13.1118C18.918 13.1118 18.4455 12.6294 18.4455 12.0398C18.4455 11.4502 18.918 10.9678 19.4955 10.9678C20.073 10.9678 20.5455 11.4502 20.5455 12.0398C20.5455 12.6294 20.073 13.1118 19.4955 13.1118Z" fill="#313131"/>
</svg>
