<svg width="28" height="28" viewBox="0 0 28 28" fill="none" xmlns="http://www.w3.org/2000/svg">
<path d="M4 21.9998C4 23.0998 4.9 23.9998 6 23.9998H22C23.1 23.9998 24 23.0998 24 21.9998V9.08984H4V21.9998Z" stroke="#313131" stroke-width="2" stroke-miterlimit="10"/>
<path d="M22 4H6C4.9 4 4 4.9 4 6V9.09H24V6C24 4.9 23.1 4 22 4Z" stroke="#313131" stroke-width="2" stroke-miterlimit="10"/>
<path d="M13.0801 11.8799H11.0801V13.8799H13.0801V11.8799Z" fill="#313131"/>
<path d="M16.9199 11.8799H14.9199V13.8799H16.9199V11.8799Z" fill="#313131"/>
<path d="M20.77 11.8799H18.77V13.8799H20.77V11.8799Z" fill="#313131"/>
<path d="M9.22998 15.29H7.22998V17.29H9.22998V15.29Z" fill="#313131"/>
<path d="M13.0801 15.29H11.0801V17.29H13.0801V15.29Z" fill="#313131"/>
<path d="M16.9199 15.29H14.9199V17.29H16.9199V15.29Z" fill="#313131"/>
<path d="M20.77 15.29H18.77V17.29H20.77V15.29Z" fill="#313131"/>
<path d="M9.22998 18.71H7.22998V20.71H9.22998V18.71Z" fill="#313131"/>
<path d="M13.0801 18.71H11.0801V20.71H13.0801V18.71Z" fill="#313131"/>
<path d="M16.9199 18.71H14.9199V20.71H16.9199V18.71Z" fill="#313131"/>
</svg>
