<svg width="40" height="40" viewBox="0 0 40 40" fill="none" xmlns="http://www.w3.org/2000/svg">
<path d="M17.7813 32.7594H11.2906C9.0875 32.7594 7.29688 30.9688 7.29688 28.7656V23.3719C7.29688 21.1688 9.0875 19.3781 11.2906 19.3781H20.4094C22.1031 19.3781 23.3 20.1125 23.825 21.4094L27.7594 17.1C28.2813 16.525 28.9969 16.1906 29.7719 16.1531C30.55 16.1125 31.2906 16.3844 31.8656 16.9063C32.4406 17.4281 32.7781 18.1438 32.8125 18.9219C32.8469 19.7 32.5812 20.4406 32.0594 21.0156L23.6344 30.2719C22.7656 31.1656 22.3344 31.4812 21.4219 31.9031C19.8969 32.6094 17.9156 32.75 17.8312 32.7563C17.8125 32.7563 17.7969 32.7563 17.7781 32.7563L17.7813 32.7594ZM11.2906 20.9406C9.95 20.9406 8.85938 22.0313 8.85938 23.3719V28.7656C8.85938 30.1063 9.95 31.1969 11.2906 31.1969H17.75C17.9656 31.1781 19.5875 31.0312 20.7656 30.4875C21.5 30.1469 21.775 29.9437 22.4969 29.2031L30.9031 19.9656C31.1438 19.7 31.2688 19.3563 31.2531 18.9969C31.2375 18.6375 31.0813 18.3063 30.8156 18.0656C30.55 17.825 30.2063 17.7 29.8469 17.7156C29.4875 17.7313 29.1562 17.8875 28.9156 18.1531L23.925 23.6219C23.7062 23.8594 23.3656 23.9406 23.0656 23.825C22.7656 23.7094 22.5656 23.4188 22.5656 23.0969C22.5656 21.6281 21.8813 20.9437 20.4125 20.9437H11.2937L11.2906 20.9406Z" fill="#231815"/>
<path d="M19.1063 16.6906C18.9469 16.6906 18.7875 16.6406 18.65 16.5437C17.4438 15.6781 16.4688 14.7875 15.6625 13.8219C15.2875 13.375 14.7563 12.6781 14.4469 11.8094C14.1125 10.8688 14.1438 9.98438 14.5406 9.18125C15.1 8.04688 16.0531 7.41875 17.225 7.41563C17.9156 7.40938 18.5844 7.6625 19.1094 8.1125C19.6313 7.66562 20.2844 7.41563 20.9813 7.41563H20.9938C22.1625 7.41875 23.1156 8.04688 23.6781 9.18125C24.075 9.98438 24.1063 10.8688 23.7719 11.8094C23.4625 12.6781 22.9313 13.3719 22.5563 13.8219C21.75 14.7875 20.7719 15.675 19.5688 16.5437C19.4313 16.6406 19.2719 16.6906 19.1125 16.6906H19.1063ZM17.2344 8.97813H17.2281C16.6563 8.97813 16.2344 9.275 15.9375 9.875C15.7281 10.2969 15.7219 10.7437 15.9156 11.2875C16.0906 11.775 16.3813 12.2469 16.8594 12.8188C17.4781 13.5594 18.2156 14.2531 19.1063 14.9344C19.9969 14.2531 20.7344 13.5563 21.3531 12.8188C21.8313 12.2469 22.1219 11.775 22.2969 11.2875C22.4906 10.7437 22.4844 10.2969 22.275 9.875C21.9781 9.275 21.5563 8.98125 20.9844 8.97813H20.9781C20.3063 8.97813 19.9438 9.44063 19.7844 9.71563C19.6438 9.95938 19.3875 10.1094 19.1063 10.1094C18.825 10.1094 18.5656 9.95938 18.4281 9.71563C18.2719 9.44063 17.9063 8.97813 17.2344 8.97813Z" fill="#D28630"/>
<path d="M15.5594 26.5312C15.1687 26.5312 14.8312 26.2406 14.7844 25.8437C14.7312 25.4156 15.0375 25.025 15.4656 24.975L21.0687 24.2969C21.5562 24.2375 21.9906 24.0062 22.2594 23.6594C22.4219 23.4531 22.525 23.2156 22.575 22.9562C22.6531 22.5312 23.0594 22.25 23.4844 22.3281C23.9094 22.4062 24.1906 22.8125 24.1125 23.2375C24.0187 23.7469 23.8125 24.2125 23.4937 24.6219C22.9719 25.2937 22.1562 25.7438 21.2562 25.8531L15.6531 26.5312C15.6219 26.5344 15.5906 26.5375 15.5594 26.5375V26.5312Z" fill="#231815"/>
</svg>
