<svg width="82" height="34" viewBox="0 0 82 34" fill="none" xmlns="http://www.w3.org/2000/svg">
<path d="M0.5 8C0.5 3.85786 3.85786 0.5 8 0.5H74C78.1421 0.5 81.5 3.85786 81.5 8V26C81.5 30.1421 78.1421 33.5 74 33.5H8C3.85787 33.5 0.5 30.1421 0.5 26V8Z" stroke="#57B35F"/>
<path d="M30.0787 15.658V11.052H28.8327V12.368H23.0647V11.052H21.8187V15.658H25.2907V16.946H20.4187V17.954H31.4647V16.946H26.5367V15.658H30.0787ZM21.6927 19.102V20.11H28.8747V23.036H30.1067V19.102H21.6927ZM28.8327 14.636H23.0647V13.348H28.8327V14.636ZM43.886 16.638V15.616H41.982V10.744H40.75V22.98H41.982V16.638H43.886ZM39.742 19.074C38.02 18.01 36.648 16.078 36.648 13.782V11.794H35.374V13.838C35.374 16.092 34.072 18.22 32.224 19.382L32.994 20.306C34.38 19.382 35.598 17.828 36.018 16.344C36.48 17.758 37.908 19.284 39 19.998L39.742 19.074Z" fill="#57B35F"/>
<path d="M59.2 13.8008H49.6V23.4008H59.2V13.8008Z" stroke="#57B35F" stroke-linecap="round" stroke-linejoin="round"/>
<path d="M61.4 20.1996H62.4V10.5996H52.8V11.5996" stroke="#57B35F" stroke-linecap="round" stroke-linejoin="round"/>
</svg>
