<svg width="24" height="24" viewBox="0 0 24 24" fill="none" xmlns="http://www.w3.org/2000/svg">
<circle cx="12" cy="12" r="12" fill="#3471DB"/>
<path d="M8.70621 7.84727V10.6783V14.6206C8.50803 14.5427 8.2957 14.5003 8.06922 14.5003C7.0925 14.5003 6.2998 15.293 6.2998 16.2697C6.2998 17.2464 7.0925 18.0391 8.06922 18.0391C9.04593 18.0391 9.83863 17.2464 9.83863 16.2697V10.4165L15.5644 9.09293V12.8441C15.3663 12.7662 15.1539 12.7238 14.9275 12.7238C13.9507 12.7238 13.158 13.5165 13.158 14.4932C13.158 15.4699 13.9507 16.2626 14.9275 16.2626C15.9042 16.2626 16.6969 15.4699 16.6969 14.4932V8.83106V6L8.70621 7.84727Z" fill="white"/>
</svg>
