<svg width="40" height="40" viewBox="0 0 40 40" fill="none" xmlns="http://www.w3.org/2000/svg">
<path d="M20 33.6425C20.19 33.6425 20.3801 33.5825 20.5701 33.4625C24.0508 31.342 27.3115 28.9415 30.2121 26.0809C32.0025 24.3106 33.6228 22.4002 34.7631 20.1397C36.5034 16.679 36.4434 13.2583 34.353 9.96758C32.8927 7.6771 30.7822 6.28681 28.0417 6.03676C25.1311 5.7767 22.7606 6.90694 20.8802 9.0974C20.5601 9.46747 20.3101 9.86756 20 10.2776C19.6999 9.86756 19.4399 9.45747 19.1198 9.0974C17.2394 6.90694 14.8689 5.7867 11.9583 6.03676C9.21775 6.28681 7.10731 7.6771 5.64701 9.96758C3.55657 13.2583 3.49656 16.679 5.23692 20.1397C6.37716 22.4102 7.9975 24.3206 9.78787 26.0809C12.6985 28.9415 15.9592 31.342 19.4299 33.4625C19.6199 33.5825 19.81 33.6425 20 33.6425Z" fill="#FE4F3A" stroke="#231815" stroke-width="1.5" stroke-miterlimit="10"/>
<path d="M18 16V22.9193L23.9308 19.4596L18 16Z" fill="white" stroke="#231F20" stroke-width="1.5" stroke-miterlimit="10" stroke-linecap="round" stroke-linejoin="round"/>
</svg>
