<svg width="24" height="24" viewBox="0 0 24 24" fill="none" xmlns="http://www.w3.org/2000/svg">
<path d="M20.433 9.18536H19.1444C18.8351 8.29876 18.3609 7.48433 17.7629 6.7833L18.4021 5.6699C18.6392 5.26783 18.4949 4.75237 18.0928 4.51526L15.1753 2.82453C14.7732 2.58742 14.2578 2.73175 14.0206 3.13381L13.3815 4.24722C12.9279 4.16474 12.4743 4.11319 12 4.11319C11.5258 4.11319 11.0619 4.17505 10.6186 4.25752L9.9691 3.14412C9.73199 2.74206 9.21653 2.59773 8.81446 2.83484L5.89694 4.52557C5.49488 4.76268 5.35055 5.27814 5.58766 5.6802L6.22683 6.79361C5.6289 7.48433 5.16498 8.29876 4.84539 9.18536H3.56704C3.10312 9.18536 2.72168 9.5668 2.72168 10.0307V13.4019C2.72168 13.8658 3.10312 14.2472 3.56704 14.2472H4.8557C5.16498 15.1338 5.63921 15.9482 6.23714 16.6493L5.59797 17.7627C5.36086 18.1647 5.50518 18.6802 5.90725 18.9173L8.82477 20.608C9.22683 20.8452 9.7423 20.7008 9.97941 20.2988L10.6186 19.1854C11.0722 19.2678 11.5258 19.3194 12 19.3194C12.4743 19.3194 12.9382 19.2678 13.3815 19.1854L14.0206 20.2988C14.2578 20.7008 14.7732 20.8452 15.1753 20.608L18.0928 18.9173C18.4949 18.6802 18.6392 18.1647 18.4021 17.7627L17.7629 16.6493C18.3609 15.9482 18.8351 15.1338 19.1444 14.2472H20.433C20.8969 14.2472 21.2784 13.8658 21.2784 13.4019V10.0307C21.2784 9.55649 20.8969 9.18536 20.433 9.18536ZM13.0825 14.8967C12.7423 15.0101 12.3815 15.0926 12 15.0926C11.6186 15.0926 11.2578 15.0101 10.9176 14.8967C10.4949 14.7524 10.1237 14.5359 9.79385 14.2472C9.24745 13.773 8.84539 13.1235 8.70106 12.3812C8.64952 12.1647 8.6289 11.9379 8.6289 11.7111C8.6289 11.4843 8.64952 11.2575 8.70106 11.041C8.84539 10.2988 9.24745 9.65959 9.79385 9.17505C10.1237 8.88639 10.4949 8.6699 10.9176 8.52557C11.2578 8.41216 11.6186 8.34 12 8.34C12.3815 8.34 12.7423 8.42247 13.0825 8.53588C13.5052 8.68021 13.8763 8.8967 14.2062 9.18536C14.7526 9.65959 15.1547 10.3091 15.299 11.0513C15.3402 11.2678 15.3712 11.4946 15.3712 11.7214C15.3712 11.9482 15.3505 12.1751 15.299 12.3915C15.1547 13.1338 14.7526 13.773 14.2062 14.2575C13.8866 14.5256 13.5052 14.7524 13.0825 14.8967Z" stroke="black" stroke-width="1.4" stroke-miterlimit="10" stroke-linecap="round" stroke-linejoin="round"/>
</svg>
