<svg width="20" height="20" viewBox="0 0 20 20" fill="none" xmlns="http://www.w3.org/2000/svg">
<path d="M14.6667 17H5.33333C4.05 17 3 15.95 3 14.6667V5.33333C3 4.05 4.05 3 5.33333 3H14.6667C15.95 3 17 4.05 17 5.33333V14.6667C17 15.95 15.95 17 14.6667 17Z" stroke="#444444" stroke-width="0.8" stroke-miterlimit="10" stroke-linecap="round" stroke-linejoin="round"/>
<path d="M8.26172 6.62891H14.1651" stroke="#444444" stroke-width="0.8" stroke-miterlimit="10" stroke-linecap="round" stroke-linejoin="round"/>
<path d="M5.98594 7.15352C6.27589 7.15352 6.51094 6.91846 6.51094 6.62852C6.51094 6.33857 6.27589 6.10352 5.98594 6.10352C5.69599 6.10352 5.46094 6.33857 5.46094 6.62852C5.46094 6.91846 5.69599 7.15352 5.98594 7.15352Z" fill="#444444" stroke="#444444" stroke-width="0.1" stroke-miterlimit="10"/>
<path d="M8.26172 10.001H14.1651" stroke="#444444" stroke-width="0.8" stroke-miterlimit="10" stroke-linecap="round" stroke-linejoin="round"/>
<path d="M5.98594 10.5256C6.27589 10.5256 6.51094 10.2905 6.51094 10.0006C6.51094 9.71064 6.27589 9.47559 5.98594 9.47559C5.69599 9.47559 5.46094 9.71064 5.46094 10.0006C5.46094 10.2905 5.69599 10.5256 5.98594 10.5256Z" fill="#444444" stroke="#444444" stroke-width="0.1" stroke-miterlimit="10"/>
<path d="M8.26172 13.373H14.1651" stroke="#444444" stroke-width="0.8" stroke-miterlimit="10" stroke-linecap="round" stroke-linejoin="round"/>
<path d="M5.98594 13.8977C6.27589 13.8977 6.51094 13.6626 6.51094 13.3727C6.51094 13.0827 6.27589 12.8477 5.98594 12.8477C5.69599 12.8477 5.46094 13.0827 5.46094 13.3727C5.46094 13.6626 5.69599 13.8977 5.98594 13.8977Z" fill="#444444" stroke="#444444" stroke-width="0.1" stroke-miterlimit="10"/>
</svg>
