<svg width="66" height="66" viewBox="0 0 66 66" fill="none" xmlns="http://www.w3.org/2000/svg">
<rect width="66" height="66" rx="20" fill="white"/>
<path d="M43.9625 21.5938H42.7063V19.7094C42.7063 19.2781 42.3563 18.9281 41.925 18.9281H39.3281C38.8969 18.9281 38.5469 19.2781 38.5469 19.7094V21.5938H27.5031V19.7094C27.5031 19.2781 27.1531 18.9281 26.7219 18.9281H24.125C23.6938 18.9281 23.3438 19.2781 23.3438 19.7094V21.5938H22.0875C20.2781 21.5938 18.8063 23.0656 18.8063 24.875V42.6875C18.8063 44.4969 20.2781 45.9688 22.0875 45.9688H43.9625C45.7719 45.9688 47.2438 44.4969 47.2438 42.6875V24.875C47.2438 23.0656 45.7719 21.5938 43.9625 21.5938ZM40.1094 20.4906H41.1438V23.1563H40.1094V20.4906ZM24.9063 20.4906H25.9406V23.1563H24.9063V20.4906ZM45.6813 42.6875C45.6813 43.6344 44.9094 44.4063 43.9625 44.4063H22.0875C21.1406 44.4063 20.3688 43.6344 20.3688 42.6875V24.875C20.3688 23.9281 21.1406 23.1563 22.0875 23.1563H23.3438V23.9375C23.3438 24.3688 23.6938 24.7188 24.125 24.7188H26.7219C27.1531 24.7188 27.5031 24.3688 27.5031 23.9375V23.1563H38.5438V23.9375C38.5438 24.3688 38.8938 24.7188 39.325 24.7188H41.9219C42.3531 24.7188 42.7031 24.3688 42.7031 23.9375V23.1563H43.9594C44.9063 23.1563 45.6781 23.9281 45.6781 24.875V42.6875H45.6813Z" fill="black"/>
<path d="M46.4625 28.025H19.5875C19.1563 28.025 18.8063 27.675 18.8063 27.2437C18.8063 26.8125 19.1563 26.4625 19.5875 26.4625H46.4625C46.8938 26.4625 47.2438 26.8125 47.2438 27.2437C47.2438 27.675 46.8938 28.025 46.4625 28.025Z" fill="black"/>
<path d="M30.6656 39.8937C30.5375 39.8937 30.4063 39.8531 30.2969 39.775C30.1031 39.6344 30.0094 39.3969 30.0469 39.1625L30.4406 36.8594L28.7688 35.2281C28.5969 35.0625 28.5375 34.8125 28.6094 34.5875C28.6813 34.3625 28.8781 34.1969 29.1125 34.1625L31.425 33.8281L32.4594 31.7344C32.5656 31.5219 32.7813 31.3844 33.0188 31.3844C33.2563 31.3844 33.475 31.5187 33.5781 31.7344L34.6125 33.8281L36.925 34.1625C37.1594 34.1969 37.3563 34.3625 37.4281 34.5875C37.5031 34.8125 37.4406 35.0625 37.2688 35.2281L35.5969 36.8594L35.9906 39.1625C36.0313 39.3969 35.9344 39.6344 35.7406 39.775C35.5469 39.9156 35.2938 39.9312 35.0813 39.8219L33.0125 38.7344L30.9438 39.8219C30.8531 39.8687 30.7531 39.8937 30.6531 39.8937H30.6656ZM33.025 37.4031C33.125 37.4031 33.225 37.4281 33.3156 37.475L34.5531 38.125L34.3156 36.7469C34.2813 36.5437 34.3469 36.3375 34.4969 36.1937L35.5 35.2187L34.1156 35.0187C33.9125 34.9906 33.7375 34.8625 33.6438 34.6781L33.025 33.425L32.4063 34.6781C32.3156 34.8625 32.1406 34.9906 31.9344 35.0187L30.55 35.2187L31.5531 36.1937C31.7 36.3375 31.7688 36.5437 31.7344 36.7469L31.4969 38.125L32.7344 37.475C32.825 37.4281 32.925 37.4031 33.025 37.4031Z" fill="#D48830"/>
</svg>
