<svg width="26" height="26" viewBox="0 0 26 26" fill="none" xmlns="http://www.w3.org/2000/svg">
<path d="M21.675 23H4.325C3.5875 23 3 22.4125 3 21.675V4.325C3 3.5875 3.5875 3 4.325 3H21.6875C22.4125 3 23 3.5875 23 4.325V21.6875C23 22.4125 22.4125 23 21.675 23Z" stroke="black" stroke-miterlimit="10" stroke-linecap="round" stroke-linejoin="round"/>
<path d="M11.5156 7.66309L15.9281 10.1006L11.5156 12.5381V7.66309Z" stroke="black" stroke-miterlimit="10" stroke-linecap="round" stroke-linejoin="round"/>
<path d="M3 17.1504H23" stroke="black" stroke-miterlimit="10" stroke-linecap="round" stroke-linejoin="round"/>
<path d="M9.93359 20.002H19.4961" stroke="black" stroke-miterlimit="10" stroke-linecap="round" stroke-linejoin="round"/>
<path d="M7.26562 20.75C7.67984 20.75 8.01563 20.4142 8.01563 20C8.01563 19.5858 7.67984 19.25 7.26562 19.25C6.85141 19.25 6.51562 19.5858 6.51562 20C6.51562 20.4142 6.85141 20.75 7.26562 20.75Z" fill="black"/>
</svg>
