<svg width="18" height="18" viewBox="0 0 18 18" fill="none" xmlns="http://www.w3.org/2000/svg">
<circle cx="9" cy="9" r="9" fill="#F9725F"/>
<path fill-rule="evenodd" clip-rule="evenodd" d="M13.2422 8.12109C13.2422 9.17143 12.848 10.1297 12.2013 10.8567L12.1919 10.8661C12.1092 10.9605 12.0219 11.0479 11.9322 11.1328L9.12109 14.0006L6.30997 11.1328C6.22028 11.0479 6.13295 10.9582 6.05034 10.8661L6.04089 10.8567C5.39417 10.1297 5 9.17143 5 8.12109C5 5.84576 6.84576 4 9.12109 4C11.3964 4 13.2422 5.84576 13.2422 8.12109ZM10.7024 8.041C10.7024 8.90787 9.99967 9.61061 9.1328 9.61061C8.26593 9.61061 7.5632 8.90787 7.5632 8.041C7.5632 7.17413 8.26593 6.4714 9.1328 6.4714C9.99967 6.4714 10.7024 7.17413 10.7024 8.041Z" fill="white"/>
</svg>
