<svg width="40" height="40" viewBox="0 0 40 40" fill="none" xmlns="http://www.w3.org/2000/svg">
<path d="M14.19 17.3416C14.2086 18.7196 13.8199 20.0725 13.0727 21.2306C12.3256 22.3886 11.2532 23.3004 9.99002 23.8516L9.52002 23.1916C10.5638 22.7574 11.4713 22.05 12.1471 21.1437C12.8228 20.2375 13.2418 19.1658 13.36 18.0416H9.96002V17.3416H14.19ZM18.07 20.8116H16.59V25.6116H15.74V16.3516H16.59V20.1116H18.07V20.8116Z" fill="black"/>
<path d="M25.78 15.5906C25.8109 17.2625 25.3434 18.9058 24.4369 20.311C23.5304 21.7161 22.226 22.8196 20.69 23.4806L20.13 22.6806C22.99 21.2406 24.53 19.0906 24.77 16.4406H20.65V15.5906H25.78ZM30.49 19.7906H28.68V25.6106H27.68V14.3906H28.68V18.9406H30.49V19.7906Z" fill="black"/>
</svg>
