<svg width="25" height="25" viewBox="0 0 25 25" fill="none" xmlns="http://www.w3.org/2000/svg">
<path d="M20.7875 10.7751C20.8007 11.8766 20.5968 12.9699 20.1874 13.9926C19.7781 15.0153 19.1713 15.9473 18.4017 16.7355C17.6322 17.5236 16.7149 18.1525 15.7022 18.5861C14.6896 19.0197 13.6015 19.2496 12.5 19.2626V19.2626C11.3974 19.2512 10.308 19.0225 9.29388 18.5896C8.27981 18.1567 7.36108 17.5282 6.59018 16.7399C5.81928 15.9515 5.21137 15.0189 4.80124 13.9955C4.39111 12.972 4.1868 11.8777 4.2 10.7751" stroke="#313131" stroke-linecap="round" stroke-linejoin="round"/>
<path d="M17.35 6.1125C17.35 3.42702 15.1758 1.25 12.4938 1.25C9.81173 1.25 7.63751 3.42702 7.63751 6.1125V11.3625C7.63751 14.048 9.81173 16.225 12.4938 16.225C15.1758 16.225 17.35 14.048 17.35 11.3625V6.1125Z" stroke="#313131" stroke-linecap="round" stroke-linejoin="round"/>
<path d="M12.5 19.2249V23.7499" stroke="#313131" stroke-linecap="round" stroke-linejoin="round"/>
</svg>
