<svg width="18" height="18" viewBox="0 0 18 18" fill="none" xmlns="http://www.w3.org/2000/svg">
<path d="M12.4515 11.0808C13.1765 10.2659 13.6184 9.19168 13.6184 8.01426C13.6184 5.46362 11.5493 3.39453 8.99863 3.39453C6.44799 3.39453 4.37891 5.46362 4.37891 8.01426C4.37891 9.19168 4.82077 10.2659 5.54574 11.0808L5.55633 11.0914C5.64893 11.1946 5.74683 11.2952 5.84738 11.3904L8.99863 14.6052L12.1499 11.3904C12.2504 11.2952 12.3483 11.1973 12.4409 11.0914L12.4515 11.0808Z" stroke="#737373" stroke-linecap="round" stroke-linejoin="round"/>
<path d="M9.01196 9.68407C9.98371 9.68407 10.7715 8.89631 10.7715 7.92456C10.7715 6.9528 9.98371 6.16504 9.01196 6.16504C8.0402 6.16504 7.25244 6.9528 7.25244 7.92456C7.25244 8.89631 8.0402 9.68407 9.01196 9.68407Z" stroke="#737373" stroke-linecap="round" stroke-linejoin="round"/>
</svg>
