<svg width="40" height="40" viewBox="0 0 40 40" fill="none" xmlns="http://www.w3.org/2000/svg">
<path d="M20 25.0594C18.3846 25.0569 16.8361 24.4141 15.6938 23.2718C14.5515 22.1296 13.9087 20.581 13.9062 18.9656V13.0281C13.9062 11.412 14.5483 9.86201 15.6911 8.71921C16.8339 7.57641 18.3838 6.93439 20 6.93439C21.6162 6.93439 23.1661 7.57641 24.3089 8.71921C25.4517 9.86201 26.0938 11.412 26.0938 13.0281V18.9656C26.0913 20.581 25.4485 22.1296 24.3062 23.2718C23.1639 24.4141 21.6154 25.0569 20 25.0594ZM20 8.49689C18.7988 8.49855 17.6472 8.97647 16.7978 9.82589C15.9483 10.6753 15.4704 11.8269 15.4688 13.0281V18.9656C15.4688 20.1674 15.9461 21.3199 16.7959 22.1697C17.6457 23.0195 18.7982 23.4969 20 23.4969C21.2018 23.4969 22.3543 23.0195 23.2041 22.1697C24.0539 21.3199 24.5313 20.1674 24.5313 18.9656V13.0281C24.5296 11.8269 24.0517 10.6753 23.2023 9.82589C22.3528 8.97647 21.2013 8.49855 20 8.49689Z" fill="#231815"/>
<path d="M20 33.3781C19.7928 33.3781 19.5941 33.2958 19.4476 33.1493C19.3011 33.0028 19.2188 32.8041 19.2188 32.5969V27.5969C19.2188 27.3897 19.3011 27.191 19.4476 27.0445C19.5941 26.898 19.7928 26.8156 20 26.8156C20.2072 26.8156 20.4059 26.898 20.5524 27.0445C20.6989 27.191 20.7813 27.3897 20.7813 27.5969V32.5969C20.7813 32.8041 20.6989 33.0028 20.5524 33.1493C20.4059 33.2958 20.2072 33.3781 20 33.3781Z" fill="#231815"/>
<path d="M20 28.4156C14.5719 28.4156 10.1562 23.8594 10.1562 18.2594C10.1562 18.0522 10.2386 17.8535 10.3851 17.707C10.5316 17.5605 10.7303 17.4781 10.9375 17.4781C11.1447 17.4781 11.3434 17.5605 11.4899 17.707C11.6364 17.8535 11.7188 18.0522 11.7188 18.2594C11.7188 22.9969 15.4344 26.8531 20 26.8531C24.5656 26.8531 28.2813 22.9969 28.2813 18.2594C28.2813 18.0522 28.3636 17.8535 28.5101 17.707C28.6566 17.5605 28.8553 17.4781 29.0625 17.4781C29.2697 17.4781 29.4684 17.5605 29.6149 17.707C29.7614 17.8535 29.8438 18.0522 29.8438 18.2594C29.8438 23.85 25.4281 28.4156 20 28.4156Z" fill="#D48830"/>
</svg>
