<svg width="24" height="24" viewBox="0 0 24 24" fill="none" xmlns="http://www.w3.org/2000/svg">
<circle cx="12" cy="12" r="12" fill="#EBEBEB"/>
<path d="M20 4H4V20H20V4Z" fill="#EBEBEB"/>
<path d="M10.5409 17.9025C10.8404 17.9025 11.0772 17.7702 11.2443 17.5125L17.8259 7.14916C17.9512 6.94719 18 6.79396 18 6.63378C18 6.25073 17.7493 6 17.3662 6C17.0876 6 16.9344 6.09054 16.7673 6.35519L10.5131 16.3215L7.26756 12.0731C7.09344 11.8294 6.91933 11.7319 6.6686 11.7319C6.27162 11.7319 6 12.0035 6 12.3865C6 12.5467 6.06965 12.7278 6.20197 12.895L9.8166 17.4985C10.0255 17.7702 10.2414 17.9025 10.5409 17.9025Z" fill="white"/>
</svg>
