<svg width="40" height="40" viewBox="0 0 40 40" fill="none" xmlns="http://www.w3.org/2000/svg">
<path d="M26.8532 33.7406H13.5844C13.175 33.7406 12.8375 33.4281 12.8063 33.0188L11.7313 19.2313C11.7157 19.0125 11.7875 18.8 11.9375 18.6406C12.0844 18.4813 12.2938 18.3906 12.5094 18.3906H27.925C28.1438 18.3906 28.35 18.4813 28.4969 18.6406C28.6438 18.8 28.7188 19.0156 28.7032 19.2313L27.6282 33.0188C27.5969 33.425 27.2563 33.7406 26.85 33.7406H26.8532ZM14.3063 32.1781H26.1313L27.0844 19.9531H13.3532L14.3063 32.1781Z" fill="#231815"/>
<path d="M28.7594 33.7406H11.675C11.2438 33.7406 10.8938 33.3906 10.8938 32.9594C10.8938 32.5281 11.2438 32.1781 11.675 32.1781H28.7594C29.1907 32.1781 29.5407 32.5281 29.5407 32.9594C29.5407 33.3906 29.1907 33.7406 28.7594 33.7406Z" fill="#231815"/>
<path d="M26.6344 13.25C26.2032 13.25 25.8532 12.9 25.8532 12.4687V9.375L24.4 8.15625C24.0688 7.87812 24.025 7.3875 24.3032 7.05625C24.5813 6.725 25.0719 6.68125 25.4032 6.95937L27.1375 8.40937C27.3157 8.55625 27.4188 8.77812 27.4188 9.00937V12.4687C27.4188 12.9 27.0688 13.25 26.6375 13.25H26.6344Z" fill="#D38730"/>
<path d="M13.8 13.25C13.3688 13.25 13.0188 12.9 13.0188 12.4687V9.00937C13.0188 8.77812 13.1219 8.55937 13.3 8.40937L15.0344 6.95937C15.3657 6.68125 15.8594 6.725 16.1344 7.05625C16.4125 7.3875 16.3688 7.88125 16.0375 8.15625L14.5844 9.375V12.4687C14.5844 12.9 14.2344 13.25 13.8032 13.25H13.8Z" fill="#D38730"/>
<path d="M30.6094 19.9562H9.82818C9.46881 19.9562 9.15631 19.7125 9.07193 19.3656L7.39068 12.6594C7.33131 12.425 7.38443 12.1781 7.53131 11.9875C7.67818 11.7969 7.90631 11.6875 8.14693 11.6875H32.2907C32.5313 11.6875 32.7594 11.7969 32.9063 11.9875C33.0532 12.1781 33.1063 12.425 33.0469 12.6594L31.3657 19.3656C31.2782 19.7125 30.9657 19.9562 30.6094 19.9562ZM10.4376 18.3937H30.0001L31.2907 13.25H9.14693L10.4376 18.3937Z" fill="#231815"/>
</svg>
