<svg width="24" height="24" viewBox="0 0 24 24" fill="none" xmlns="http://www.w3.org/2000/svg">
<circle cx="12" cy="12" r="12" fill="#F06A40"/>
<path d="M15.5479 16.6592V18.7431C17.0524 18.2442 18.2433 17.0534 18.7421 15.5488H16.6582C16.0467 15.5488 15.5479 16.0477 15.5479 16.6592Z" fill="white"/>
<path d="M16.023 5H7.97701C6.33563 5 5 6.33563 5 7.97701V16.023C5 17.6644 6.33563 19 7.97701 19H13.9632C14.1161 19 14.269 18.992 14.4218 18.9759V16.6506C14.4218 15.4195 15.4276 14.4138 16.6506 14.4138H18.9759C18.992 14.2609 19 14.108 19 13.9552V7.97701C19 6.33563 17.6644 5 16.023 5ZM11.3644 15.9908H8.67701C8.36322 15.9908 8.11379 15.7414 8.11379 15.4276C8.11379 15.1138 8.36322 14.8644 8.67701 14.8644H11.3644C11.6782 14.8644 11.9276 15.1138 11.9276 15.4276C11.9276 15.7414 11.6782 15.9908 11.3644 15.9908ZM15.323 12.5632H8.67701C8.36322 12.5632 8.11379 12.3138 8.11379 12C8.11379 11.6862 8.37126 11.4368 8.67701 11.4368H15.3149C15.6287 11.4368 15.8782 11.6862 15.8782 12C15.8782 12.3138 15.6287 12.5632 15.323 12.5632ZM15.323 9.13563H8.67701C8.36322 9.13563 8.11379 8.88621 8.11379 8.57241C8.11379 8.25862 8.36322 8.0092 8.67701 8.0092H15.3149C15.6287 8.0092 15.8782 8.25862 15.8782 8.57241C15.8782 8.88621 15.6287 9.13563 15.323 9.13563Z" fill="white"/>
</svg>
