<svg width="26" height="26" viewBox="0 0 26 26" fill="none" xmlns="http://www.w3.org/2000/svg">
<path d="M21.4827 22.7777H4.51821C3.7971 22.7777 3.22266 22.2033 3.22266 21.4822V4.51772C3.22266 3.79661 3.7971 3.22217 4.51821 3.22217H21.4949C22.2038 3.22217 22.7782 3.79661 22.7782 4.51772V21.4944C22.7782 22.2033 22.2038 22.7777 21.4827 22.7777Z" stroke="black" stroke-miterlimit="10" stroke-linecap="round" stroke-linejoin="round"/>
<path d="M11.5586 7.78125L15.873 10.1646L11.5586 12.5479V7.78125Z" stroke="black" stroke-miterlimit="10" stroke-linecap="round" stroke-linejoin="round"/>
<path d="M3.22266 17.0576H22.7782" stroke="black" stroke-miterlimit="10" stroke-linecap="round" stroke-linejoin="round"/>
<path d="M9.99414 19.8442H19.3441" stroke="black" stroke-miterlimit="10" stroke-linecap="round" stroke-linejoin="round"/>
<path d="M7.38958 20.5775C7.79459 20.5775 8.12292 20.2492 8.12292 19.8442C8.12292 19.4392 7.79459 19.1108 7.38958 19.1108C6.98457 19.1108 6.65625 19.4392 6.65625 19.8442C6.65625 20.2492 6.98457 20.5775 7.38958 20.5775Z" fill="black"/>
</svg>
