<svg width="24" height="24" viewBox="0 0 24 24" fill="none" xmlns="http://www.w3.org/2000/svg">
<path d="M10.8901 15.4999V21.4899C10.8901 22.3399 11.5801 23.0299 12.4301 23.0299H21.4601C22.3101 23.0299 23.0001 22.3399 23.0001 21.4899V12.4599C23.0001 11.6099 22.3101 10.9199 21.4601 10.9199H15.4701" stroke="#231815" stroke-miterlimit="10" stroke-linecap="round" stroke-linejoin="round"/>
<path d="M16.7002 4.82031H17.6602C18.8602 4.82031 19.8302 5.79031 19.8302 6.99031V7.95031" stroke="#231815" stroke-width="0.6" stroke-miterlimit="10" stroke-linecap="round" stroke-linejoin="round"/>
<path d="M17.2298 5.74062L16.2998 4.82063L17.2298 3.89062" stroke="#231815" stroke-width="0.6" stroke-miterlimit="10" stroke-linecap="round" stroke-linejoin="round"/>
<path d="M7.2799 19.1905H6.3199C5.1199 19.1905 4.1499 18.2205 4.1499 17.0205V16.0605" stroke="#231815" stroke-width="0.6" stroke-miterlimit="10" stroke-linecap="round" stroke-linejoin="round"/>
<path d="M6.75977 18.2695L7.67977 19.1895L6.75977 20.1195" stroke="#231815" stroke-width="0.6" stroke-miterlimit="10" stroke-linecap="round" stroke-linejoin="round"/>
<path d="M12.11 0.470703H2C1.17 0.470703 0.5 1.1407 0.5 1.9707V12.0807C0.5 12.9107 1.17 13.5807 2 13.5807H12.11C12.94 13.5807 13.61 12.9107 13.61 12.0807V1.9707C13.61 1.1507 12.94 0.470703 12.11 0.470703ZM7.25 5.5207C7.25 6.9807 7.15 7.4207 4.24 9.1807L3.82 8.5507C6.37 7.0507 6.47 6.6507 6.47 5.5107V4.8007H3.97V4.1207H7.26V5.5207H7.25ZM10.58 6.8507H9.44V10.8107H8.65V3.4307H9.44V6.1607H10.58V6.8507Z" fill="#231815"/>
<path d="M18.6402 18.3496H15.8002L15.1602 20.1196H14.2402L16.8202 13.3496H17.6002L20.1902 20.1196H19.2702L18.6402 18.3496ZM16.0802 17.6196H18.3802L17.2302 14.4596L16.0802 17.6196Z" fill="black"/>
</svg>
