<svg width="40" height="40" viewBox="0 0 40 40" fill="none" xmlns="http://www.w3.org/2000/svg">
<path d="M32.1875 33.15H7.8125C7.6053 33.15 7.40658 33.0677 7.26007 32.9212C7.11356 32.7747 7.03125 32.576 7.03125 32.3688V22.0563C7.03125 21.8491 7.11356 21.6504 7.26007 21.5038C7.40658 21.3573 7.6053 21.275 7.8125 21.275H32.1875C32.3947 21.275 32.5934 21.3573 32.7399 21.5038C32.8864 21.6504 32.9688 21.8491 32.9688 22.0563V32.3688C32.9688 32.576 32.8864 32.7747 32.7399 32.9212C32.5934 33.0677 32.3947 33.15 32.1875 33.15ZM8.59375 31.5875H31.4062V22.8375H8.59375V31.5875Z" fill="#231815"/>
<path d="M32.1875 22.8375C32.0454 22.8383 31.9057 22.7999 31.7839 22.7266C31.6621 22.6533 31.5628 22.5479 31.4969 22.4219L28.5906 16.8969H22.9313C22.7241 16.8969 22.5254 16.8146 22.3788 16.6681C22.2323 16.5216 22.15 16.3229 22.15 16.1156C22.15 15.9084 22.2323 15.7097 22.3788 15.5632C22.5254 15.4167 22.7241 15.3344 22.9313 15.3344H29.0625C29.205 15.334 29.3449 15.3728 29.4667 15.4467C29.5885 15.5206 29.6877 15.6266 29.7531 15.7532L32.8781 21.6907C32.9752 21.872 32.9967 22.0843 32.9382 22.2814C32.8797 22.4786 32.7459 22.6447 32.5656 22.7438C32.4499 22.8074 32.3196 22.8397 32.1875 22.8375Z" fill="#231815"/>
<path d="M7.81249 22.8375C7.68595 22.8384 7.56125 22.8072 7.44999 22.7469C7.26915 22.6517 7.13321 22.489 7.07176 22.2941C7.01031 22.0992 7.02832 21.888 7.12187 21.7063L10.2469 15.7688C10.3124 15.6422 10.4115 15.5362 10.5333 15.4623C10.6552 15.3885 10.795 15.3496 10.9375 15.35H17.0656C17.2728 15.35 17.4715 15.4324 17.618 15.5789C17.7646 15.7254 17.8469 15.9241 17.8469 16.1313C17.8469 16.3385 17.7646 16.5372 17.618 16.6837C17.4715 16.8302 17.2728 16.9125 17.0656 16.9125H11.4094L8.50312 22.4375C8.43485 22.5604 8.33459 22.6624 8.213 22.7328C8.0914 22.8033 7.953 22.8394 7.81249 22.8375Z" fill="#231815"/>
<path d="M20 19.5719C19.8978 19.5722 19.7965 19.5521 19.7021 19.513C19.6077 19.4738 19.522 19.4163 19.45 19.3437L13.8625 13.8C12.7125 12.6594 12.1281 11.4 12.1281 10.05C12.1331 8.86423 12.6085 7.72891 13.4498 6.89338C14.2912 6.05784 15.4298 5.59041 16.6156 5.59374C17.2564 5.59396 17.8898 5.73095 18.4734 5.99555C19.0571 6.26015 19.5775 6.64628 20 7.12811C20.4215 6.6491 20.9403 6.26534 21.5217 6.0024C22.103 5.73945 22.7338 5.60334 23.3719 5.60311C24.5576 5.59979 25.6962 6.06722 26.5376 6.90275C27.379 7.73828 27.8544 8.8736 27.8594 10.0594C27.8594 11.4 27.275 12.6594 26.125 13.8094L20.5594 19.3437C20.4863 19.4174 20.399 19.4756 20.3029 19.5148C20.2068 19.554 20.1038 19.5734 20 19.5719ZM16.6156 7.16561C15.8442 7.16229 15.1031 7.46509 14.5547 8.0076C14.0063 8.55011 13.6956 9.28801 13.6906 10.0594C13.6906 10.9812 14.1062 11.8437 14.9625 12.6906L20 17.6906L25.0375 12.6906C25.8906 11.8437 26.3094 10.9812 26.3094 10.0594C26.3044 9.28801 25.9936 8.55011 25.4453 8.0076C24.8969 7.46509 24.1557 7.16229 23.3844 7.16561C22.8205 7.16489 22.2684 7.32699 21.7944 7.63244C21.3205 7.93788 20.9448 8.37369 20.7125 8.88749C20.651 9.02509 20.551 9.14197 20.4246 9.22403C20.2982 9.30609 20.1507 9.34984 20 9.34998C19.8492 9.35023 19.7016 9.30665 19.5751 9.22454C19.4486 9.14243 19.3487 9.02533 19.2875 8.88749C19.0552 8.37369 18.6795 7.93788 18.2055 7.63244C17.7316 7.32699 17.1795 7.16489 16.6156 7.16561Z" fill="#D48830"/>
</svg>
