<svg width="22" height="22" viewBox="0 0 22 22" fill="none" xmlns="http://www.w3.org/2000/svg">
<path d="M19.4827 1.22217H2.51821C1.7971 1.22217 1.22266 1.79661 1.22266 2.51772V15.0577H20.7782V2.51772C20.7782 1.79661 20.2038 1.22217 19.4827 1.22217Z" fill="black" stroke="black" stroke-miterlimit="10" stroke-linecap="round" stroke-linejoin="round"/>
<path d="M1.22266 19.4816C1.22266 20.2027 1.7971 20.7771 2.51821 20.7771H19.4949C20.2038 20.7771 20.7904 20.2027 20.7904 19.4816V15.0449H1.22266V19.4816Z" stroke="black" stroke-miterlimit="10" stroke-linecap="round" stroke-linejoin="round"/>
<path d="M7.99414 17.8438H17.3441" stroke="black" stroke-miterlimit="10" stroke-linecap="round" stroke-linejoin="round"/>
<path d="M5.38958 18.5775C5.79459 18.5775 6.12292 18.2492 6.12292 17.8442C6.12292 17.4392 5.79459 17.1108 5.38958 17.1108C4.98457 17.1108 4.65625 17.4392 4.65625 17.8442C4.65625 18.2492 4.98457 18.5775 5.38958 18.5775Z" fill="black"/>
<path d="M9.55838 11.1598C9.44838 11.1598 9.33838 11.1353 9.25282 11.0742C9.05727 10.9642 8.94727 10.7687 8.94727 10.5487V5.78201C8.94727 5.56201 9.05727 5.36645 9.25282 5.25645C9.3506 5.19534 9.4606 5.1709 9.55838 5.1709C9.65615 5.1709 9.76615 5.19534 9.85171 5.24423L14.1662 7.62756C14.3617 7.73756 14.4839 7.94534 14.4839 8.16534C14.4839 8.38534 14.3617 8.59312 14.1662 8.70312L9.85171 11.0865C9.75393 11.1353 9.65615 11.1598 9.55838 11.1598Z" fill="white"/>
<path d="M9.55816 5.78179L13.8726 8.16513L9.55816 10.5485V5.78179ZM9.55816 4.55957C9.33816 4.55957 9.13038 4.62068 8.93483 4.73068C8.55594 4.93846 8.33594 5.34179 8.33594 5.78179V10.5607C8.33594 10.9885 8.56816 11.3918 8.93483 11.6118C9.13038 11.7218 9.33816 11.7829 9.55816 11.7829C9.76594 11.7829 9.96149 11.734 10.1448 11.6362L14.4593 9.2529C14.8504 9.0329 15.0948 8.62957 15.0948 8.17735C15.0948 7.72513 14.8504 7.32179 14.4593 7.10179L10.1448 4.70624C9.96149 4.60846 9.75372 4.55957 9.55816 4.55957Z" fill="black"/>
</svg>
