<svg width="30" height="27" viewBox="0 0 30 27" fill="none" xmlns="http://www.w3.org/2000/svg">
<path d="M10.7883 20.77L12.8683 18.92C14.0083 17.9 14.6683 16.44 14.6683 14.91V2.09C14.6683 1.49 14.1783 1 13.5783 1H12.2083C11.7183 1 11.2783 1.33 11.1583 1.81L8.86828 10.59C8.34828 12.58 7.35828 14.41 5.98828 15.94" stroke="black" stroke-width="1.56" stroke-miterlimit="10"/>
<path d="M7.98846 25.5619L1.31846 18.8819C0.828456 18.3919 0.918456 17.5919 1.48846 17.2119L4.21846 15.4019C4.64846 15.1119 5.21846 15.1719 5.58846 15.5419L11.3485 21.3019C11.7185 21.6719 11.7685 22.2419 11.4885 22.6719L9.67846 25.4019C9.29846 25.9719 8.48846 26.0519 8.00846 25.5719L7.98846 25.5619Z" stroke="#D38730" stroke-width="1.56" stroke-miterlimit="10"/>
<path d="M18.5387 20.77L16.4587 18.92C15.3187 17.9 14.6587 16.44 14.6587 14.91V2.09C14.6587 1.49 15.1487 1 15.7487 1H17.1187C17.6087 1 18.0487 1.33 18.1687 1.81L20.4587 10.59C20.9787 12.58 21.9687 14.41 23.3387 15.94" stroke="black" stroke-width="1.56" stroke-miterlimit="10"/>
<path d="M21.3384 25.5619L28.0184 18.8819C28.5084 18.3919 28.4184 17.5919 27.8484 17.2119L25.1184 15.4019C24.6884 15.1119 24.1184 15.1719 23.7484 15.5419L17.9884 21.3019C17.6184 21.6719 17.5684 22.2419 17.8484 22.6719L19.6584 25.4019C20.0384 25.9719 20.8484 26.0519 21.3284 25.5719L21.3384 25.5619Z" stroke="#D38730" stroke-width="1.56" stroke-miterlimit="10"/>
</svg>
