<svg width="22" height="22" viewBox="0 0 22 22" fill="none" xmlns="http://www.w3.org/2000/svg">
<path d="M19.4817 20.7782H2.51724C1.79612 20.7782 1.22168 20.2038 1.22168 19.4827V2.51821C1.22168 1.7971 1.79612 1.22266 2.51724 1.22266H19.4939C20.2028 1.22266 20.7772 1.7971 20.7772 2.51821V19.4949C20.7772 20.2038 20.2028 20.7782 19.4817 20.7782Z" stroke="black" stroke-miterlimit="10" stroke-linecap="round" stroke-linejoin="round"/>
<path d="M9.55762 5.78125L13.8721 8.16458L9.55762 10.5479V5.78125Z" stroke="black" stroke-miterlimit="10" stroke-linecap="round" stroke-linejoin="round"/>
<path d="M1.22168 15.0586H20.7772" stroke="black" stroke-miterlimit="10" stroke-linecap="round" stroke-linejoin="round"/>
<path d="M7.99268 17.8447H17.3427" stroke="black" stroke-miterlimit="10" stroke-linecap="round" stroke-linejoin="round"/>
<path d="M5.38861 18.578C5.79362 18.578 6.12194 18.2497 6.12194 17.8447C6.12194 17.4397 5.79362 17.1113 5.38861 17.1113C4.9836 17.1113 4.65527 17.4397 4.65527 17.8447C4.65527 18.2497 4.9836 18.578 5.38861 18.578Z" fill="black"/>
</svg>
