<svg width="18" height="18" viewBox="0 0 18 18" fill="none" xmlns="http://www.w3.org/2000/svg">
<path d="M17.1934 14.7486C17.1899 13.5209 17.2393 12.7236 16.8794 12.4238C16.5196 12.1239 15.9693 12.3073 14.7627 12.0851C14.2724 11.9934 13.5315 11.8029 13.2316 11.7111C12.9318 11.6159 12.6954 11.57 12.4837 11.6688C12.2721 11.7676 12.205 11.8029 10.7692 13.6691C10.7692 13.6691 8.78655 12.8083 7.01204 10.9809C5.18814 9.20636 4.32381 7.2237 4.32381 7.2237C6.19005 5.79139 6.22533 5.72083 6.32411 5.50916C6.42289 5.29749 6.37703 5.06112 6.28177 4.76126C6.18652 4.46139 5.99602 3.72054 5.90782 3.23017C5.68557 2.02364 5.86902 1.47682 5.56915 1.11346C5.26928 0.750086 4.47198 0.803004 3.24429 0.799476C1.90018 0.795948 1.43803 0.59486 0.982935 1.0817C0.527842 1.56855 0.732458 4.12977 1.78376 7.12845C2.83506 10.1271 5.36453 12.6248 5.36453 12.6248C5.36453 12.6248 7.86225 15.1543 10.8609 16.2056C13.8596 17.2569 16.4208 17.4615 16.9077 17.0064C17.3945 16.5513 17.1934 16.0892 17.1899 14.7451L17.1934 14.7486Z" fill="black"/>
</svg>
