<svg width="25" height="25" viewBox="0 0 25 25" fill="none" xmlns="http://www.w3.org/2000/svg">
<path d="M4.78751 19.45H22.2875V1.95002H4.78751C4.26904 1.93313 3.76497 2.1222 3.38551 2.4759C3.00605 2.82959 2.78206 3.31914 2.76251 3.83752V21.2875C2.79474 20.778 3.02424 20.3011 3.40231 19.958C3.78039 19.615 4.27727 19.4327 4.78751 19.45V19.45Z" stroke="#313131" stroke-linecap="round" stroke-linejoin="round"/>
<path d="M22.25 19.45H4.75001C4.4856 19.4194 4.21771 19.4451 3.96393 19.5254C3.71015 19.6056 3.47621 19.7387 3.27748 19.9157C3.07875 20.0928 2.91972 20.3099 2.81083 20.5528C2.70193 20.7957 2.64563 21.0588 2.64563 21.325C2.64563 21.5912 2.70193 21.8543 2.81083 22.0972C2.91972 22.3401 3.07875 22.5572 3.27748 22.7343C3.47621 22.9113 3.71015 23.0444 3.96393 23.1246C4.21771 23.2049 4.4856 23.2306 4.75001 23.2H22.25C21.8537 22.6552 21.6402 21.9987 21.6402 21.325C21.6402 20.6513 21.8537 19.9948 22.25 19.45V19.45Z" stroke="#313131" stroke-linecap="round" stroke-linejoin="round"/>
<path d="M17.175 6.44995H7.82501" stroke="#313131" stroke-linecap="round" stroke-linejoin="round"/>
</svg>
