<svg width="40" height="40" viewBox="0 0 40 40" fill="none" xmlns="http://www.w3.org/2000/svg">
<path d="M11.8437 32.65C11.8281 32.65 11.8125 32.65 11.7969 32.65C10.2312 32.5563 9.00623 31.2531 9.00623 29.6844V8.125C9.00623 7.69375 9.35623 7.34375 9.78748 7.34375H29.8843C30.3156 7.34375 30.6656 7.69375 30.6656 8.125V26.2469C30.6656 26.6781 30.3156 27.0281 29.8843 27.0281H19.1C17.7344 30.6375 15.2406 32.5781 11.8625 32.65C11.8562 32.65 11.8531 32.65 11.8469 32.65H11.8437ZM10.5687 8.90625V29.6844C10.5687 30.4187 11.1344 31.0281 11.8625 31.0875C14.7062 31.0156 16.7062 29.3031 17.8062 26C17.9125 25.6812 18.2125 25.4656 18.5469 25.4656H29.1031V8.90625H10.5687Z" fill="#231815"/>
<path d="M11.9812 32.6563H11.6781C11.2469 32.6563 10.8969 32.3063 10.8969 31.875C10.8969 31.4438 11.2469 31.0938 11.6781 31.0938H11.7281C11.7625 31.0906 11.7937 31.0875 11.8281 31.0875C11.85 31.0875 11.8719 31.0875 11.8937 31.0875H11.9312C11.9469 31.0906 11.9656 31.0938 11.9812 31.0938C12.4125 31.0938 12.7625 31.4438 12.7625 31.875C12.7625 32.3063 12.4125 32.6563 11.9812 32.6563Z" fill="#231815"/>
<path d="M25.8406 32.6563H11.9813C11.9281 32.6563 11.8781 32.6563 11.825 32.65C11.4063 32.625 11.0688 32.2719 11.0781 31.8531C11.0875 31.4344 11.4094 31.0969 11.8281 31.0875C14.6906 31.0281 16.7 29.3156 17.8063 26C17.9125 25.6813 18.2125 25.4656 18.5469 25.4656H32.7125C32.9625 25.4656 33.2 25.5875 33.3469 25.7906C33.4938 25.9938 33.5344 26.2563 33.4531 26.4938C32.1094 30.525 29.4781 32.6563 25.8406 32.6563ZM16.325 31.0938H25.8406C28.4656 31.0938 30.3906 29.7281 31.575 27.0281H19.1C18.4344 28.7875 17.5 30.15 16.3281 31.0938H16.325Z" fill="#231815"/>
<path d="M19.8406 18.2844H12.7156V12.8344H19.8406V18.2844ZM13.9656 17.0344H18.5906V14.0844H13.9656V17.0344Z" fill="#D48830"/>
<path d="M26.9594 12.8344H21.6656V14.0844H26.9594V12.8344Z" fill="#D48830"/>
<path d="M26.9594 17.0343H21.6656V18.2843H26.9594V17.0343Z" fill="#D48830"/>
<path d="M26.9594 21.2344H12.7125V22.4844H26.9594V21.2344Z" fill="#D48830"/>
</svg>
