<svg width="26" height="26" viewBox="0 0 26 26" fill="none" xmlns="http://www.w3.org/2000/svg">
<path d="M5.59375 13.7455C5.59375 11.6188 7.23153 9.89551 9.26042 9.89551H16.5937C18.6226 9.89551 20.2604 11.6188 20.2604 13.7455" stroke="black" stroke-miterlimit="10"/>
<path d="M12.9994 8.08661C14.6666 8.08661 16.0182 6.735 16.0182 5.06772C16.0182 3.40043 14.6666 2.04883 12.9994 2.04883C11.3321 2.04883 9.98047 3.40043 9.98047 5.06772C9.98047 6.735 11.3321 8.08661 12.9994 8.08661Z" stroke="black" stroke-miterlimit="10"/>
<path d="M5.59333 17.0578H2V13.7456H24V17.0578H20.3578" stroke="black" stroke-miterlimit="10" stroke-linecap="round" stroke-linejoin="round"/>
<path d="M20.3575 17.0576L20.2598 23.9998" stroke="black" stroke-miterlimit="10" stroke-linecap="round" stroke-linejoin="round"/>
<path d="M5.59375 23.9998V17.0576" stroke="black" stroke-miterlimit="10" stroke-linecap="round" stroke-linejoin="round"/>
<path d="M10.5195 18.4756H15.4084" stroke="black" stroke-miterlimit="10" stroke-linecap="round" stroke-linejoin="round"/>
<path d="M12.9648 16.1899V23.5233" stroke="black" stroke-miterlimit="10" stroke-linecap="round" stroke-linejoin="round"/>
</svg>
