<svg xmlns="http://www.w3.org/2000/svg" width="24" height="24" viewBox="0 0 24 24">
    <g transform="translate(-103 -2511)">
        <circle data-name="Ellipse 61" cx="12" cy="12" r="12" transform="translate(103 2511)" style="fill:#42d31a"/>
        <path data-name="Exclusion 1" d="M2.092 8.882H0V0h2.092v2.663a2.9 2.9 0 0 1 1.319-.314A3.18 3.18 0 0 1 6.49 5.615a3.18 3.18 0 0 1-3.078 3.267 2.9 2.9 0 0 1-1.319-.314v.314zm1.25-4.667a1.331 1.331 0 0 0-1.3 1.361 1.331 1.331 0 0 0 1.3 1.361 1.331 1.331 0 0 0 1.3-1.361 1.332 1.332 0 0 0-1.3-1.36z" transform="translate(112.333 2518.333)" style="fill:#fff"/>
    </g>
</svg>
