<svg width="40" height="40" viewBox="0 0 40 40" fill="none" xmlns="http://www.w3.org/2000/svg">
<path d="M20 10.7305C22.4853 10.7305 24.5 8.71575 24.5 6.23047C24.5 3.74519 22.4853 1.73047 20 1.73047C17.5147 1.73047 15.5 3.74519 15.5 6.23047C15.5 8.71575 17.5147 10.7305 20 10.7305Z" fill="white" stroke="#231F20" stroke-width="1.5" stroke-miterlimit="10" stroke-linecap="round" stroke-linejoin="round"/>
<path d="M8.57031 20.0696V19.4796C8.57031 16.3696 11.0903 13.8496 14.2003 13.8496H25.7903C28.9003 13.8496 31.4203 16.3696 31.4203 19.4796V20.0696" fill="white"/>
<path d="M8.57031 20.0696V19.4796C8.57031 16.3696 11.0903 13.8496 14.2003 13.8496H25.7903C28.9003 13.8496 31.4203 16.3696 31.4203 19.4796V20.0696" stroke="#231F20" stroke-width="1.5" stroke-miterlimit="10" stroke-linecap="round" stroke-linejoin="round"/>
<path d="M5.23047 20.4102V24.0502H8.57047V37.3702H31.4305V24.0502H34.7705V20.4102H5.23047Z" fill="#E67A2E" stroke="#231F20" stroke-width="1.5" stroke-miterlimit="10" stroke-linecap="round" stroke-linejoin="round"/>
<path d="M20 25.0303V32.8203" stroke="#231F20" stroke-width="1.5" stroke-miterlimit="10" stroke-linecap="round" stroke-linejoin="round"/>
<path d="M17.5 27.5596H22.5" stroke="#231F20" stroke-width="1.5" stroke-miterlimit="10" stroke-linecap="round" stroke-linejoin="round"/>
</svg>
