<svg width="24" height="25" viewBox="0 0 24 25" fill="none" xmlns="http://www.w3.org/2000/svg">
<path d="M8.6167 14.4902L14.8798 17.8915" stroke="black" stroke-miterlimit="10" stroke-linecap="round" stroke-linejoin="round"/>
<path d="M14.9868 8.1543L8.65576 11.5849" stroke="black" stroke-miterlimit="10" stroke-linecap="round" stroke-linejoin="round"/>
<path d="M17.608 4.30582C18.948 4.30582 20.0356 5.39428 20.0356 6.73541C20.0356 8.07654 18.948 9.165 17.608 9.165C16.268 9.165 15.1805 8.07654 15.1805 6.73541C15.1805 5.39428 16.268 4.30582 17.608 4.30582ZM17.608 3.33398C15.734 3.33398 14.2095 4.85977 14.2095 6.73541C14.2095 8.61105 15.734 10.1368 17.608 10.1368C19.4821 10.1368 21.0066 8.61105 21.0066 6.73541C21.0066 4.85977 19.4821 3.33398 17.608 3.33398Z" fill="black"/>
<path d="M17.608 16.9406C18.948 16.9406 20.0356 18.029 20.0356 19.3701C20.0356 20.7113 18.948 21.7997 17.608 21.7997C16.268 21.7997 15.1805 20.7113 15.1805 19.3701C15.1805 18.029 16.268 16.9406 17.608 16.9406ZM17.608 15.9688C15.734 15.9688 14.2095 17.4945 14.2095 19.3701C14.2095 21.2458 15.734 22.7715 17.608 22.7715C19.4821 22.7715 21.0066 21.2458 21.0066 19.3701C21.0066 17.4945 19.4821 15.9688 17.608 15.9688Z" fill="black"/>
<path d="M5.95617 10.6222C7.29617 10.6222 8.3837 11.7106 8.3837 13.0517C8.3837 14.3928 7.29617 15.4813 5.95617 15.4813C4.61617 15.4813 3.52863 14.3928 3.52863 13.0517C3.52863 11.7106 4.61617 10.6222 5.95617 10.6222ZM5.95617 9.65039C4.08211 9.65039 2.55762 11.1761 2.55762 13.0517C2.55762 14.9273 4.08211 16.4531 5.95617 16.4531C7.83023 16.4531 9.35472 14.9273 9.35472 13.0517C9.35472 11.1761 7.83023 9.65039 5.95617 9.65039Z" fill="black"/>
</svg>
