<svg width="40" height="40" viewBox="0 0 40 40" fill="none" xmlns="http://www.w3.org/2000/svg">
<path d="M15.9125 16.9157C15.7053 16.9327 15.4999 16.8667 15.3413 16.7322C15.1828 16.5977 15.0842 16.4057 15.0672 16.1985C15.0502 15.9913 15.1162 15.7858 15.2507 15.6273C15.3852 15.4688 15.5772 15.3702 15.7844 15.3532L30.8313 12.8532C30.9339 12.8329 31.0395 12.8335 31.1419 12.8548C31.2442 12.8761 31.3413 12.9178 31.4273 12.9773C31.5133 13.0368 31.5864 13.113 31.6424 13.2013C31.6984 13.2896 31.7361 13.3883 31.7533 13.4914C31.7704 13.5946 31.7667 13.7002 31.7423 13.8019C31.7179 13.9035 31.6734 13.9993 31.6113 14.0835C31.5492 14.1676 31.4708 14.2384 31.3809 14.2917C31.2909 14.3451 31.1911 14.3798 31.0875 14.3938L16.0406 16.8938C15.9985 16.904 15.9557 16.9114 15.9125 16.9157Z" fill="#D48830"/>
<path d="M12.475 32.0938C10.15 32.0938 8.25623 30.3406 8.25623 28.1875C8.25623 26.0344 10.15 24.2812 12.475 24.2812C14.8 24.2812 16.6937 26.0344 16.6937 28.1875C16.6937 30.3406 14.8 32.0938 12.475 32.0938ZM12.475 25.8438C11.0094 25.8438 9.81873 26.8937 9.81873 28.1875C9.81873 29.4812 11.0094 30.5312 12.475 30.5312C13.9406 30.5312 15.1312 29.4812 15.1312 28.1875C15.1312 26.8937 13.9406 25.8438 12.475 25.8438Z" fill="#231815"/>
<path d="M15.9125 28.8469C15.7053 28.8469 15.5066 28.7646 15.36 28.6181C15.2135 28.4716 15.1312 28.2728 15.1312 28.0656V11.1906C15.1309 11.0054 15.1965 10.8262 15.3161 10.6848C15.4357 10.5434 15.6017 10.4491 15.7844 10.4188L30.8312 7.91877C31.0359 7.88479 31.2458 7.93352 31.4145 8.05425C31.5833 8.17497 31.6972 8.3578 31.7312 8.56252C31.7652 8.76723 31.7165 8.97706 31.5957 9.14584C31.475 9.31462 31.2922 9.42853 31.0875 9.46251L16.6937 11.8531V28.0656C16.6937 28.2728 16.6114 28.4716 16.4649 28.6181C16.3184 28.7646 16.1197 28.8469 15.9125 28.8469Z" fill="#231815"/>
<path d="M27.5219 29.5938C25.1969 29.5938 23.3031 27.8406 23.3031 25.6875C23.3031 23.5344 25.1969 21.7812 27.5219 21.7812C29.8469 21.7812 31.7406 23.5344 31.7406 25.6875C31.7406 27.8406 29.8531 29.5938 27.5219 29.5938ZM27.5219 23.3438C26.0594 23.3438 24.8656 24.3937 24.8656 25.6875C24.8656 26.9812 26.0594 28.0312 27.5219 28.0312C28.9844 28.0312 30.1781 26.9812 30.1781 25.6875C30.1781 24.3937 28.9875 23.3438 27.5219 23.3438Z" fill="#231815"/>
<path d="M30.9594 26.3469C30.7522 26.3469 30.5534 26.2646 30.4069 26.1181C30.2604 25.9716 30.1781 25.7729 30.1781 25.5657V8.69067C30.1781 8.48347 30.2604 8.28476 30.4069 8.13825C30.5534 7.99174 30.7522 7.90942 30.9594 7.90942C31.1666 7.90942 31.3653 7.99174 31.5118 8.13825C31.6583 8.28476 31.7406 8.48347 31.7406 8.69067V25.5657C31.7406 25.7729 31.6583 25.9716 31.5118 26.1181C31.3653 26.2646 31.1666 26.3469 30.9594 26.3469Z" fill="#231815"/>
</svg>
