<svg width="25" height="25" viewBox="0 0 25 25" fill="none" xmlns="http://www.w3.org/2000/svg">
<path d="M4.78751 19.3875H22.2875V1.88752H4.78751C4.26904 1.87063 3.76497 2.0597 3.38551 2.4134C3.00605 2.76709 2.78206 3.25664 2.76251 3.77501V21.275C2.78206 20.7566 3.00605 20.2671 3.38551 19.9134C3.76497 19.5597 4.26904 19.3706 4.78751 19.3875V19.3875Z" fill="#313131" stroke="#313131" stroke-linecap="round" stroke-linejoin="round"/>
<path d="M22.25 19.3875H4.75001C4.4856 19.3569 4.21771 19.3826 3.96393 19.4629C3.71015 19.5431 3.47621 19.6762 3.27748 19.8532C3.07875 20.0303 2.91972 20.2474 2.81083 20.4903C2.70193 20.7332 2.64563 20.9963 2.64563 21.2625C2.64563 21.5287 2.70193 21.7918 2.81083 22.0347C2.91972 22.2776 3.07875 22.4947 3.27748 22.6718C3.47621 22.8488 3.71015 22.9819 3.96393 23.0621C4.21771 23.1424 4.4856 23.1681 4.75001 23.1375H22.25C21.8537 22.5927 21.6402 21.9362 21.6402 21.2625C21.6402 20.5888 21.8537 19.9323 22.25 19.3875V19.3875Z" stroke="#313131" stroke-linecap="round" stroke-linejoin="round"/>
<path d="M17.175 6.44995H7.82501" stroke="white" stroke-width="0.75" stroke-linecap="round" stroke-linejoin="round"/>
</svg>
