<svg width="26" height="26" viewBox="0 0 26 26" fill="none" xmlns="http://www.w3.org/2000/svg">
<path d="M5.52344 13.5216C5.52344 11.4356 7.12995 9.74512 9.1201 9.74512H16.3134C18.3036 9.74512 19.9101 11.4356 19.9101 13.5216" stroke="black" stroke-miterlimit="10"/>
<path d="M12.7894 7.97036C14.4248 7.97036 15.7506 6.64456 15.7506 5.00911C15.7506 3.37365 14.4248 2.04785 12.7894 2.04785C11.1539 2.04785 9.82812 3.37365 9.82812 5.00911C9.82812 6.64456 11.1539 7.97036 12.7894 7.97036Z" stroke="black" stroke-miterlimit="10"/>
<path d="M5.52473 16.7705H2V13.5215H23.58V16.7705H20.0073" stroke="black" stroke-miterlimit="10" stroke-linecap="round" stroke-linejoin="round"/>
<path d="M5.50586 23.5802V16.7705" stroke="black" stroke-miterlimit="10" stroke-linecap="round" stroke-linejoin="round"/>
<path d="M19.5137 23.5802V16.7705" stroke="black" stroke-miterlimit="10" stroke-linecap="round" stroke-linejoin="round"/>
<path d="M10.1836 18.1621H14.9791" stroke="black" stroke-miterlimit="10" stroke-linecap="round" stroke-linejoin="round"/>
<path d="M12.582 15.9199V23.1133" stroke="black" stroke-miterlimit="10" stroke-linecap="round" stroke-linejoin="round"/>
</svg>
