<svg width="40" height="40" viewBox="0 0 40 40" fill="none" xmlns="http://www.w3.org/2000/svg">
<path d="M9.54109 5.32031L9.52109 5.34031C9.46109 5.34031 9.41109 5.32031 9.35109 5.32031C7.98109 5.32031 6.87109 6.43031 6.87109 7.80031C6.87109 7.85031 6.88109 7.90031 6.89109 7.95031L6.87109 7.97031V32.3203C6.87109 30.9503 7.98109 29.8403 9.35109 29.8403C9.41109 29.8403 9.46109 29.8503 9.52109 29.8603L9.54109 29.8403H33.1411V5.32031H9.54109Z" fill="white" stroke="#231F20" stroke-width="1.5" stroke-miterlimit="10" stroke-linecap="round" stroke-linejoin="round"/>
<path d="M9.48027 29.8398C8.14027 29.8398 6.94027 30.8398 6.87027 32.1798C6.80027 33.6098 7.93027 34.7898 9.34027 34.7898V34.8098H33.1303C32.1703 33.2898 32.1703 31.3598 33.1303 29.8398H9.48027Z" fill="white" stroke="#231F20" stroke-width="1.5" stroke-miterlimit="10" stroke-linecap="round" stroke-linejoin="round"/>
<path d="M20 13.5V21.29" stroke="#231F20" stroke-width="1.5" stroke-miterlimit="10" stroke-linecap="round" stroke-linejoin="round"/>
<path d="M17.5 16.0303H22.5" stroke="#231F20" stroke-width="1.5" stroke-miterlimit="10" stroke-linecap="round" stroke-linejoin="round"/>
<path d="M10.3301 32.3301H14.8301V36.6801L12.5801 35.4301L10.3301 36.6801V32.3301Z" fill="#FE4F3A" stroke="#231F20" stroke-width="1.5" stroke-miterlimit="10" stroke-linecap="round" stroke-linejoin="round"/>
</svg>
