<svg xmlns="http://www.w3.org/2000/svg" width="24" height="24" viewBox="0 0 24 24">
    <defs>
        <linearGradient id="a" x1=".5" x2=".5" y2="1" gradientUnits="objectBoundingBox">
            <stop offset="0" stop-color="#cf3a9a"/>
            <stop offset="1" stop-color="#f34d52"/>
        </linearGradient>
    </defs>
    <g transform="translate(-143 -2511)">
        <circle data-name="Ellipse 58" cx="12" cy="12" r="12" transform="translate(143 2511)" style="fill:url(#a)"/>
        <g data-name="Icon / Bold / Social / Instagram">
            <path style="fill:none" d="M0 0h13v13H0z" transform="translate(148 2516)"/>
            <path data-name="Icon / Bold / Social / Instagram" d="M5.045 11.942c-.812 0-1.044-.012-1.536-.035a4.411 4.411 0 0 1-1.45-.278A2.929 2.929 0 0 1 1 10.941a2.924 2.924 0 0 1-.687-1.058A4.328 4.328 0 0 1 .04 8.509l-.017-.364A39.433 39.433 0 0 1 0 6.38v-1.3C0 4.234.013 4 .036 3.509a4.416 4.416 0 0 1 .278-1.45A2.926 2.926 0 0 1 1 1 2.931 2.931 0 0 1 2.06.312 4.324 4.324 0 0 1 3.434.039L3.8.022C4.119.009 4.392 0 5.078 0h1.789c.842 0 1.075.013 1.568.035a4.414 4.414 0 0 1 1.45.277A2.931 2.931 0 0 1 10.942 1a2.932 2.932 0 0 1 .689 1.058 4.327 4.327 0 0 1 .269 1.375l.021.476c.014.394.019.791.019 1.849V6.9c0 .818-.012 1.049-.035 1.536a4.416 4.416 0 0 1-.277 1.45 3.054 3.054 0 0 1-1.744 1.744 4.323 4.323 0 0 1-1.374.27l-.476.021c-.393.014-.791.018-1.849.019zM3.559 1.11a3.31 3.31 0 0 0-1.109.206 1.85 1.85 0 0 0-.687.447 1.848 1.848 0 0 0-.447.687l-.026.069a3.32 3.32 0 0 0-.177.981l-.019.441c-.013.35-.017.7-.018 1.494v1.512c0 .743.012.964.033 1.437a3.3 3.3 0 0 0 .206 1.109 1.849 1.849 0 0 0 .447.687 1.85 1.85 0 0 0 .687.447l.069.026a3.228 3.228 0 0 0 .923.173l.117.006c.609.028.806.034 2.2.035H6.94c.756 0 .977-.012 1.445-.033l.117-.006a3.159 3.159 0 0 0 .992-.2 1.979 1.979 0 0 0 1.133-1.134l.026-.069a3.318 3.318 0 0 0 .177-.981l.019-.435c.013-.356.017-.693.018-1.5V5c0-.755-.012-.976-.033-1.445a3.31 3.31 0 0 0-.206-1.109 1.848 1.848 0 0 0-.447-.687 1.848 1.848 0 0 0-.686-.447l-.069-.022a3.318 3.318 0 0 0-.981-.177l-.467-.02a30.78 30.78 0 0 0-1.03-.016H5c-.747.003-.969.012-1.441.033zM4.778 8.8a3.076 3.076 0 1 1 1.194.241A3.058 3.058 0 0 1 4.778 8.8zm-.214-4.237a1.991 1.991 0 1 0 1.408-.583 1.978 1.978 0 0 0-1.408.583zm3.879-1.78a.717.717 0 1 1 .717.717.717.717 0 0 1-.717-.717z" transform="translate(148.695 2516.695)" style="fill:#fff"/>
        </g>
    </g>
</svg>
