<svg width="77" height="77" viewBox="0 0 77 77" fill="none" xmlns="http://www.w3.org/2000/svg">
<circle cx="38.5" cy="38.5" r="38" fill="#F9F9F9" stroke="#EBEBEB"/>
<path d="M29.4492 31.7812H32.6328V41.1172C32.6328 42.224 32.3984 43.1549 31.9297 43.9102C31.4674 44.6654 30.8229 45.235 29.9961 45.6191C29.1693 46.0033 28.2122 46.1953 27.125 46.1953C26.0312 46.1953 25.0677 46.0033 24.2344 45.6191C23.4076 45.235 22.7565 44.6654 22.2812 43.9102C21.8125 43.1549 21.5781 42.224 21.5781 41.1172V31.7812H24.7715V41.1172C24.7715 41.7292 24.8626 42.2305 25.0449 42.6211C25.2337 43.0052 25.5039 43.2884 25.8555 43.4707C26.207 43.6465 26.6302 43.7344 27.125 43.7344C27.6198 43.7344 28.0397 43.6465 28.3848 43.4707C28.7363 43.2884 29 43.0052 29.1758 42.6211C29.3581 42.2305 29.4492 41.7292 29.4492 41.1172V31.7812ZM34.9082 31.7812H40.3672C41.4544 31.7812 42.3952 31.944 43.1895 32.2695C43.9902 32.5951 44.6055 33.0768 45.0352 33.7148C45.4648 34.3529 45.6797 35.1406 45.6797 36.0781C45.6797 36.8594 45.5527 37.5234 45.2988 38.0703C45.0449 38.6172 44.6868 39.0697 44.2246 39.4277C43.7689 39.7858 43.235 40.0755 42.623 40.2969L41.5879 40.8633H36.9395L36.9199 38.3926H40.377C40.8522 38.3926 41.2461 38.3079 41.5586 38.1387C41.8711 37.9694 42.1055 37.7318 42.2617 37.4258C42.4245 37.1133 42.5059 36.7487 42.5059 36.332C42.5059 35.9023 42.4245 35.5312 42.2617 35.2188C42.099 34.9062 41.8581 34.6686 41.5391 34.5059C41.2266 34.3366 40.8359 34.252 40.3672 34.252H38.0918V46H34.9082V31.7812ZM42.7793 46L39.5859 39.6816L42.9453 39.6719L46.1875 45.8535V46H42.7793ZM57.1152 43.5391V46H49.9375V43.5391H57.1152ZM51.0215 31.7812V46H47.8379V31.7812H51.0215Z" fill="#444444"/>
</svg>
