<svg width="40" height="40" viewBox="0 0 40 40" fill="none" xmlns="http://www.w3.org/2000/svg">
<path d="M14.6625 16.9125C14.2875 16.9125 13.9563 16.6406 13.8938 16.2594C13.8219 15.8344 14.1094 15.4313 14.5375 15.3594L29.5844 12.8594C30.0094 12.7875 30.4125 13.075 30.4844 13.5031C30.5563 13.9281 30.2688 14.3313 29.8406 14.4031L14.7938 16.9031C14.75 16.9094 14.7063 16.9125 14.6656 16.9125H14.6625Z" fill="#D38730"/>
<path d="M11.225 32.0906C8.89997 32.0906 7.00623 30.3375 7.00623 28.1844C7.00623 26.0313 8.89997 24.2781 11.225 24.2781C13.55 24.2781 15.4437 26.0313 15.4437 28.1844C15.4437 30.3375 13.55 32.0906 11.225 32.0906ZM11.225 25.8406C9.75935 25.8406 8.56873 26.8906 8.56873 28.1844C8.56873 29.4781 9.75935 30.5281 11.225 30.5281C12.6906 30.5281 13.8812 29.4781 13.8812 28.1844C13.8812 26.8906 12.6906 25.8406 11.225 25.8406Z" fill="#231815"/>
<path d="M14.6625 28.8469C14.2312 28.8469 13.8812 28.4969 13.8812 28.0656V11.1906C13.8812 10.8094 14.1562 10.4812 14.5344 10.4187L29.5812 7.91875C30.0062 7.84687 30.4094 8.13437 30.4812 8.5625C30.5531 8.9875 30.2656 9.39062 29.8375 9.4625L15.4437 11.8531V28.0656C15.4437 28.4969 15.0937 28.8469 14.6625 28.8469Z" fill="#231815"/>
<path d="M26.275 29.5906C23.95 29.5906 22.0563 27.8375 22.0563 25.6844C22.0563 23.5313 23.95 21.7781 26.275 21.7781C28.6 21.7781 30.4938 23.5313 30.4938 25.6844C30.4938 27.8375 28.6 29.5906 26.275 29.5906ZM26.275 23.3406C24.8094 23.3406 23.6188 24.3906 23.6188 25.6844C23.6188 26.9781 24.8094 28.0281 26.275 28.0281C27.7406 28.0281 28.9313 26.9781 28.9313 25.6844C28.9313 24.3906 27.7406 23.3406 26.275 23.3406Z" fill="#231815"/>
<path d="M29.7125 26.3469C29.2813 26.3469 28.9313 25.9969 28.9313 25.5656V8.69062C28.9313 8.25937 29.2813 7.90937 29.7125 7.90937C30.1438 7.90937 30.4938 8.25937 30.4938 8.69062V25.5656C30.4938 25.9969 30.1438 26.3469 29.7125 26.3469Z" fill="#231815"/>
</svg>
