<svg width="40" height="40" viewBox="0 0 40 40" fill="none" xmlns="http://www.w3.org/2000/svg">
<path d="M30.1594 32.5844H18.4562C18.025 32.5844 17.675 32.2344 17.675 31.8031C17.675 31.3719 18.025 31.0219 18.4562 31.0219H30.1594C31.3562 31.0219 32.3312 30.0469 32.3312 28.85V11.15C32.3312 9.95312 31.3562 8.97812 30.1594 8.97812H12.4562C11.2594 8.97812 10.2844 9.95312 10.2844 11.15C10.2844 11.5812 9.93436 11.9312 9.50311 11.9312C9.07186 11.9312 8.72186 11.5812 8.72186 11.15C8.72186 9.09062 10.3969 7.41562 12.4562 7.41562H30.1594C32.2187 7.41562 33.8937 9.09062 33.8937 11.15V28.8531C33.8937 30.9125 32.2187 32.5875 30.1594 32.5875V32.5844Z" fill="black"/>
<path d="M22.525 25.6906C22.3656 25.6906 22.2031 25.6406 22.0656 25.5406C21.7156 25.2875 21.6406 24.7969 21.8938 24.45L25.4 19.6344C25.6531 19.2844 26.1438 19.2094 26.4906 19.4625C26.8406 19.7156 26.9156 20.2062 26.6625 20.5531L23.1563 25.3687C23.0031 25.5781 22.7656 25.6906 22.525 25.6906Z" fill="black"/>
<path d="M12.0156 18.8719C10.1875 18.8719 8.69687 17.3844 8.69687 15.5531C8.69687 13.7219 10.1844 12.2344 12.0156 12.2344C13.8469 12.2344 15.3312 13.7219 15.3312 15.5531C15.3312 17.3844 13.8437 18.8719 12.0156 18.8719ZM12.0156 13.8C11.0469 13.8 10.2594 14.5875 10.2594 15.5562C10.2594 16.525 11.0469 17.3125 12.0156 17.3125C12.9844 17.3125 13.7687 16.525 13.7687 15.5562C13.7687 14.5875 12.9812 13.8 12.0156 13.8Z" fill="black"/>
<path d="M15.8781 32.5C15.4469 32.5 15.0969 32.15 15.0969 31.7187V27.4531C15.0969 27.0219 15.4469 26.6719 15.8781 26.6719C16.2719 26.6719 20.8688 26.7062 20.8688 26.7062C21.3469 26.7062 21.7438 26.3125 21.7438 25.825C21.7438 25.3375 21.35 24.9437 20.8625 24.9437H17.3188C16.9875 24.9437 16.6938 24.7344 16.5813 24.4219C16.4938 24.1781 16.4156 23.9375 16.3375 23.7031C15.7563 21.9406 15.4594 21.2281 13.9313 21.2281H10.1156C8.59376 21.2281 7.35626 22.5437 7.35626 24.1625V31.7156C7.35626 32.1469 7.00626 32.4969 6.57501 32.4969C6.14376 32.4969 5.79376 32.1469 5.79376 31.7156V24.1625C5.79376 21.6844 7.73126 19.6656 10.1156 19.6656H13.9313C16.65 19.6656 17.2719 21.55 17.8219 23.2125C17.8406 23.2687 17.8594 23.325 17.8781 23.3781H20.8625C22.2094 23.3781 23.3063 24.475 23.3063 25.8219C23.3063 27.1687 22.2094 28.2656 20.8625 28.2656C20.8594 28.2656 18.075 28.2437 16.6594 28.2344V31.7125C16.6594 32.1437 16.3094 32.4937 15.8781 32.4937V32.5Z" fill="black"/>
<path d="M29.725 12.9375H18.4719V14.1031H29.725V12.9375Z" fill="#D48830"/>
<path d="M29.725 15.5531H18.4719V16.7187H29.725V15.5531Z" fill="#D48830"/>
<path d="M22.3375 18.2406H18.4719V19.4062H22.3375V18.2406Z" fill="#D48830"/>
</svg>
