<svg width="26" height="26" viewBox="0 0 26 26" fill="none" xmlns="http://www.w3.org/2000/svg">
<path d="M21.6633 3H4.32417C3.58713 3 3 3.58752 3 4.32504V17.1504H22.9875V4.32504C22.9875 3.58752 22.4004 3 21.6633 3Z" fill="black" stroke="black" stroke-miterlimit="10" stroke-linecap="round" stroke-linejoin="round"/>
<path d="M3 21.6753C3 22.4129 3.58713 23.0004 4.32417 23.0004H21.6758C22.4004 23.0004 23 22.4129 23 21.6753V17.1377H3V21.6753Z" stroke="black" stroke-miterlimit="10" stroke-linecap="round" stroke-linejoin="round"/>
<path d="M9.92188 20H19.4784" stroke="black" stroke-miterlimit="10" stroke-linecap="round" stroke-linejoin="round"/>
<path d="M7.2593 20.75C7.67325 20.75 8.00883 20.4142 8.00883 20C8.00883 19.5858 7.67325 19.25 7.2593 19.25C6.84534 19.25 6.50977 19.5858 6.50977 20C6.50977 20.4142 6.84534 20.75 7.2593 20.75Z" fill="black"/>
<path d="M11.5211 13.1633C11.4087 13.1633 11.2962 13.1383 11.2088 13.0758C11.0089 12.9633 10.8965 12.7633 10.8965 12.5382V7.6631C10.8965 7.4381 11.0089 7.23809 11.2088 7.12559C11.3087 7.06309 11.4212 7.03809 11.5211 7.03809C11.621 7.03809 11.7335 7.06309 11.8209 7.11309L16.2307 9.55066C16.4305 9.66316 16.5554 9.87567 16.5554 10.1007C16.5554 10.3257 16.4305 10.5382 16.2307 10.6507L11.8209 13.0883C11.721 13.1383 11.621 13.1633 11.5211 13.1633Z" fill="white"/>
<path d="M11.5207 7.66312L15.9304 10.1007L11.5207 12.5383V7.66312ZM11.5207 6.41309C11.2958 6.41309 11.0835 6.47559 10.8836 6.58809C10.4963 6.8006 10.2715 7.21311 10.2715 7.66312V12.5508C10.2715 12.9883 10.5088 13.4008 10.8836 13.6258C11.0835 13.7383 11.2958 13.8008 11.5207 13.8008C11.7331 13.8008 11.9329 13.7508 12.1203 13.6508L16.5301 11.2132C16.9298 10.9882 17.1797 10.5757 17.1797 10.1132C17.1797 9.65068 16.9298 9.23817 16.5301 9.01316L12.1203 6.56309C11.9329 6.46309 11.7206 6.41309 11.5207 6.41309Z" fill="black"/>
</svg>
