<svg width="18" height="18" viewBox="0 0 18 18" fill="none" xmlns="http://www.w3.org/2000/svg">
<circle cx="9" cy="9" r="9" fill="#6288FC"/>
<path d="M12.9149 4.75781H5.08537C4.49955 4.75781 4.02466 5.23271 4.02466 5.81852V12.1828C4.02466 12.7686 4.49955 13.2435 5.08537 13.2435H12.9149C13.5007 13.2435 13.9756 12.7686 13.9756 12.1828V5.81852C13.9756 5.23271 13.5007 4.75781 12.9149 4.75781Z" fill="white"/>
<path d="M13.9756 6.85376V5.56021C13.9756 5.1157 13.6157 4.75586 13.1712 4.75586H4.82901C4.3845 4.75586 4.02466 5.1157 4.02466 5.56021V6.88198L13.9756 6.85376Z" stroke="#6288FC" stroke-width="0.6" stroke-linecap="round" stroke-linejoin="round"/>
<path d="M8.11938 8.66211V10.0286V11.3974L10.2925 10.0286L8.11938 8.66211Z" fill="#6288FC"/>
<path d="M4.96313 6.88158L5.77925 4.75781" stroke="#6288FC" stroke-width="0.6" stroke-linecap="round" stroke-linejoin="round"/>
<path d="M6.80933 6.88158L7.62544 4.75781" stroke="#6288FC" stroke-width="0.6" stroke-linecap="round" stroke-linejoin="round"/>
<path d="M8.65552 6.88158L9.47163 4.75781" stroke="#6288FC" stroke-width="0.6" stroke-linecap="round" stroke-linejoin="round"/>
<path d="M10.5042 6.88158L11.3179 4.75781" stroke="#6288FC" stroke-width="0.6" stroke-linecap="round" stroke-linejoin="round"/>
<path d="M12.3503 6.88158L13.1665 4.75781" stroke="#6288FC" stroke-width="0.6" stroke-linecap="round" stroke-linejoin="round"/>
</svg>
