<svg width="40" height="40" viewBox="0 0 40 40" fill="none" xmlns="http://www.w3.org/2000/svg">
<path d="M32.9198 31.6104H5.7998L2.7998 35.7204H29.9198L32.9198 31.6104Z" stroke="#231F20" stroke-width="1.5" stroke-miterlimit="10" stroke-linecap="round" stroke-linejoin="round"/>
<path d="M36.22 7.03051L34.11 4.77051L32.95 5.85051C30.88 5.91051 28.4 7.01051 26.28 8.98051C24.16 10.9505 22.9 13.3605 22.7 15.4205L21.54 16.5005L23.65 18.7605C25.67 20.9205 30.12 20.0405 33.59 16.8005C37.06 13.5605 38.24 9.19051 36.22 7.03051Z" fill="white" stroke="#231F20" stroke-width="1.5" stroke-miterlimit="10" stroke-linecap="round" stroke-linejoin="round"/>
<path d="M31.4778 14.5566C34.9479 11.3136 36.1224 6.93129 34.1011 4.76854C32.0799 2.60578 27.6283 3.48154 24.1582 6.7246C20.6881 9.96766 19.5136 14.3499 21.5348 16.5127C23.5561 18.6755 28.0077 17.7997 31.4778 14.5566Z" fill="#FFCF2D" stroke="#231F20" stroke-width="1.5" stroke-miterlimit="10"/>
<path d="M24.3891 35.7201C24.4591 35.1601 24.4991 34.5701 24.4991 33.9701C24.4991 29.2201 22.0991 25.3701 19.1391 25.3701H16.0491V26.9501C14.6791 28.5101 13.7891 31.0701 13.7891 33.9701C13.7891 34.5701 13.8391 35.1501 13.9091 35.7201H24.3891Z" fill="white" stroke="#231F20" stroke-width="1.5" stroke-miterlimit="10" stroke-linecap="round" stroke-linejoin="round"/>
<path d="M21.2995 35.7201C21.3695 35.1601 21.4095 34.5701 21.4095 33.9701C21.4095 29.2201 19.0095 25.3701 16.0495 25.3701C13.0895 25.3701 10.6895 29.2201 10.6895 33.9701C10.6895 34.5701 10.7295 35.1501 10.7995 35.7201H21.2995Z" fill="#FFCF2D" stroke="#231F20" stroke-width="1.5" stroke-miterlimit="10"/>
</svg>
