<svg width="40" height="40" viewBox="0 0 40 40" fill="none" xmlns="http://www.w3.org/2000/svg">
<path d="M9.37501 30.45C9.2723 30.4504 9.17052 30.4305 9.07554 30.3914C8.98057 30.3523 8.89428 30.2947 8.82166 30.2221C8.74903 30.1495 8.6915 30.0632 8.65239 29.9682C8.61327 29.8732 8.59334 29.7715 8.59376 29.6688V9.09374C8.59458 8.30054 8.90983 7.54004 9.47041 6.97887C10.031 6.41771 10.7912 6.10166 11.5844 6.10001H30.625C30.8322 6.10001 31.0309 6.18232 31.1774 6.32883C31.3239 6.47534 31.4063 6.67406 31.4063 6.88126V27.4594C31.4063 27.6666 31.3239 27.8653 31.1774 28.0118C31.0309 28.1583 30.8322 28.2406 30.625 28.2406H11.5844C11.2059 28.2414 10.8431 28.3922 10.5755 28.6598C10.3078 28.9275 10.1571 29.2902 10.1563 29.6688C10.1563 29.7713 10.136 29.8729 10.0968 29.9677C10.0575 30.0625 9.99998 30.1486 9.92743 30.2212C9.85489 30.2937 9.76876 30.3513 9.67397 30.3905C9.57919 30.4298 9.4776 30.45 9.37501 30.45ZM11.5844 7.66251C11.2053 7.66333 10.8421 7.81449 10.5744 8.08281C10.3066 8.35113 10.1563 8.71469 10.1563 9.09374V27.0406C10.5945 26.8022 11.0855 26.6776 11.5844 26.6781H29.8438V7.66251H11.5844Z" fill="#231815"/>
<path d="M30.625 27.4594H11.5844C11.0124 27.4809 10.471 27.7232 10.0739 28.1355C9.67685 28.5478 9.45502 29.0979 9.45502 29.6703C9.45502 30.2427 9.67685 30.7928 10.0739 31.2051C10.471 31.6174 11.0124 31.8597 11.5844 31.8813H30.625C30.1879 31.2267 29.9547 30.4574 29.9547 29.6703C29.9547 28.8833 30.1879 28.1139 30.625 27.4594Z" fill="white"/>
<path d="M30.625 32.6625H11.5844C10.8075 32.6374 10.0709 32.3111 9.53025 31.7527C8.9896 31.1943 8.68732 30.4476 8.68732 29.6703C8.68732 28.8931 8.9896 28.1463 9.53025 27.5879C10.0709 27.0295 10.8075 26.7032 11.5844 26.6781H30.625C30.7661 26.6784 30.9044 26.7168 31.0254 26.7894C31.1464 26.862 31.2454 26.9659 31.3121 27.0903C31.3787 27.2146 31.4105 27.3546 31.404 27.4956C31.3974 27.6365 31.3528 27.773 31.275 27.8906C30.922 28.4165 30.7336 29.0354 30.7336 29.6688C30.7336 30.3021 30.922 30.921 31.275 31.4469C31.3537 31.5645 31.399 31.7014 31.4059 31.8428C31.4129 31.9842 31.3813 32.1248 31.3146 32.2496C31.2478 32.3745 31.1484 32.4788 31.0269 32.5515C30.9055 32.6243 30.7665 32.6626 30.625 32.6625ZM11.5844 28.2406C11.2167 28.2578 10.8699 28.416 10.6158 28.6822C10.3617 28.9484 10.22 29.3023 10.22 29.6703C10.22 30.0383 10.3617 30.3922 10.6158 30.6584C10.8699 30.9247 11.2167 31.0828 11.5844 31.1H29.3969C29.1032 30.1695 29.1032 29.1711 29.3969 28.2406H11.5844Z" fill="#231815"/>
<path d="M25.9719 11.6719H14.0281V12.9219H25.9719V11.6719Z" fill="#D48830"/>
</svg>
