<svg width="40" height="40" viewBox="0 0 40 40" fill="none" xmlns="http://www.w3.org/2000/svg">
<path d="M32.2702 13.0895C31.0602 12.6595 20.0002 12.4795 20.0002 12.4795C20.0002 12.4795 8.9402 12.6595 7.7302 13.0895C6.5202 13.5195 6.2002 14.1795 6.2002 14.9395C6.2002 15.6995 6.4402 24.0295 9.2702 31.9195L20.0002 33.2195L30.7302 31.9195C33.5602 24.0295 33.8002 15.6895 33.8002 14.9395C33.8002 14.1695 33.4902 13.5095 32.2702 13.0895Z" fill="#3599D7" stroke="#231F20" stroke-width="1.5" stroke-miterlimit="10" stroke-linecap="round" stroke-linejoin="round"/>
<path d="M23.4504 31.0898H16.4004V27.0198C16.4004 25.7898 17.4004 24.7998 18.6204 24.7998H21.2204C22.4504 24.7998 23.4404 25.7998 23.4404 27.0198V31.0898H23.4504Z" fill="white" stroke="#231F20" stroke-width="1.5" stroke-miterlimit="10" stroke-linecap="round" stroke-linejoin="round"/>
<path d="M20 29.46H5.25L6.3 36.66H20H33.7L34.75 29.46H20Z" fill="#E67A2E" stroke="#231F20" stroke-width="1.5" stroke-miterlimit="10" stroke-linecap="round" stroke-linejoin="round"/>
<path d="M17.4697 7.94977C18.0897 7.21977 19.0197 6.75977 20.0597 6.75977C21.1197 6.75977 22.0597 7.23977 22.6897 7.99977" stroke="#231F20" stroke-width="1.5" stroke-miterlimit="10" stroke-linecap="round" stroke-linejoin="round"/>
<path d="M15.4697 5.33961C16.6197 4.10961 18.2497 3.34961 20.0597 3.34961C21.9097 3.34961 23.5697 4.14961 24.7197 5.41961" stroke="#231F20" stroke-width="1.5" stroke-miterlimit="10" stroke-linecap="round" stroke-linejoin="round"/>
</svg>
