<svg width="40" height="40" viewBox="0 0 40 40" fill="none" xmlns="http://www.w3.org/2000/svg">
<path d="M35 26.25L34.98 7.19C34.98 6.12 34.1 5.25 33 5.25H6.98C5.89 5.25 5 6.12 5 7.19V8.49C5 8.53 5 8.55 5 8.58L5.03 32.91C5.03 33.92 5.91 34.74 7.01 34.74H33.03C34.12 34.74 35.01 33.92 35.01 32.91L35 26.24V26.25Z" fill="white" stroke="#231F20" stroke-width="1.5" stroke-miterlimit="10"/>
<path d="M14.8896 30.7402H30.1296" stroke="#231F20" stroke-width="1.5" stroke-miterlimit="10" stroke-linecap="round" stroke-linejoin="round"/>
<path d="M10.8496 31.7402C11.4019 31.7402 11.8496 31.2925 11.8496 30.7402C11.8496 30.1879 11.4019 29.7402 10.8496 29.7402C10.2973 29.7402 9.84961 30.1879 9.84961 30.7402C9.84961 31.2925 10.2973 31.7402 10.8496 31.7402Z" fill="#231F20"/>
<path d="M35 26.25L34.98 7.19C34.98 6.12 34.1 5.25 33 5.25H6.98C5.88 5.25 5 6.12 5 7.19L5.02 26.25H35Z" fill="white" stroke="#231F20" stroke-width="1.5" stroke-miterlimit="10"/>
<path d="M17.9902 12.8496V19.8496L23.9902 16.3496L17.9902 12.8496Z" fill="#FE4F3A" stroke="#231F20" stroke-width="1.5" stroke-miterlimit="10" stroke-linecap="round" stroke-linejoin="round"/>
</svg>
