<svg width="82" height="34" viewBox="0 0 82 34" fill="none" xmlns="http://www.w3.org/2000/svg">
<path d="M0.5 8C0.5 3.85786 3.85786 0.5 8 0.5H74C78.1421 0.5 81.5 3.85786 81.5 8V26C81.5 30.1421 78.1421 33.5 74 33.5H8C3.85787 33.5 0.5 30.1421 0.5 26V8Z" stroke="#D48830"/>
<path d="M30.7507 22.98V10.744H29.5607V15.728H28.2167V11.01H27.0407V22.378H28.2167V16.722H29.5607V22.98H30.7507ZM26.5087 19.186C25.1787 18.36 24.0587 16.652 24.0587 14.244V13.264H26.3267V12.242H20.5027V13.264H22.8407V14.286C22.8407 16.68 21.7207 18.514 20.1947 19.494L20.9787 20.348C22.0987 19.606 23.1767 18.206 23.4427 16.918C23.7787 18.136 24.9127 19.494 25.7527 20.068L26.5087 19.186ZM42.99 20.642C42.99 19.214 41.422 18.318 38.776 18.318C36.158 18.318 34.59 19.214 34.59 20.642C34.59 22.07 36.158 22.966 38.776 22.966C41.422 22.966 42.99 22.07 42.99 20.642ZM42.864 18.402V10.744H41.674V13.922H40.302V10.968H39.126V17.772H40.302V14.93H41.674V18.402H42.864ZM38.776 19.326C40.568 19.326 41.702 19.844 41.702 20.642C41.702 21.44 40.568 21.944 38.776 21.944C37.012 21.944 35.892 21.44 35.892 20.642C35.892 19.844 37.012 19.326 38.776 19.326ZM38.65 16.428C37.586 15.938 36.228 14.706 36.228 12.886V11.444H35.024V12.914C35.024 14.706 33.792 16.162 32.448 16.89L33.19 17.786C34.268 17.184 35.346 15.966 35.64 15C36.004 15.868 37.152 16.946 37.992 17.366L38.65 16.428Z" fill="#D48830"/>
<path d="M56 24.248C60.003 24.248 63.248 21.0029 63.248 17C63.248 12.997 60.003 9.75195 56 9.75195C51.9971 9.75195 48.752 12.997 48.752 17C48.752 21.0029 51.9971 24.248 56 24.248Z" stroke="#D48830" stroke-linecap="round" stroke-linejoin="round"/>
<path d="M59.536 16.9998L53.808 13.7998V20.1998L59.536 16.9998Z" fill="#D48830" stroke="#D48830" stroke-linecap="round" stroke-linejoin="round"/>
</svg>
