<svg width="40" height="40" viewBox="0 0 40 40" fill="none" xmlns="http://www.w3.org/2000/svg">
<path d="M30.9625 8.59376H29.7063V6.70938C29.7063 6.27813 29.3563 5.92813 28.925 5.92813H26.3281C25.8969 5.92813 25.5469 6.27813 25.5469 6.70938V8.59376H14.5031V6.70938C14.5031 6.27813 14.1531 5.92813 13.7219 5.92813H11.125C10.6938 5.92813 10.3438 6.27813 10.3438 6.70938V8.59376H9.08752C7.27815 8.59376 5.80627 10.0656 5.80627 11.875V29.6875C5.80627 31.4969 7.27815 32.9688 9.08752 32.9688H30.9625C32.7719 32.9688 34.2438 31.4969 34.2438 29.6875V11.875C34.2438 10.0656 32.7719 8.59376 30.9625 8.59376ZM27.1094 7.49063H28.1438V10.1563H27.1094V7.49063ZM11.9063 7.49063H12.9406V10.1563H11.9063V7.49063ZM32.6813 29.6875C32.6813 30.6344 31.9094 31.4063 30.9625 31.4063H9.08752C8.14065 31.4063 7.36877 30.6344 7.36877 29.6875V11.875C7.36877 10.9281 8.14065 10.1563 9.08752 10.1563H10.3438V10.9375C10.3438 11.3688 10.6938 11.7188 11.125 11.7188H13.7219C14.1531 11.7188 14.5031 11.3688 14.5031 10.9375V10.1563H25.5438V10.9375C25.5438 11.3688 25.8938 11.7188 26.325 11.7188H28.9219C29.3531 11.7188 29.7031 11.3688 29.7031 10.9375V10.1563H30.9594C31.9063 10.1563 32.6781 10.9281 32.6781 11.875V29.6875H32.6813Z" fill="black"/>
<path d="M33.4625 15.025H6.58752C6.15627 15.025 5.80627 14.675 5.80627 14.2437C5.80627 13.8125 6.15627 13.4625 6.58752 13.4625H33.4625C33.8938 13.4625 34.2438 13.8125 34.2438 14.2437C34.2438 14.675 33.8938 15.025 33.4625 15.025Z" fill="black"/>
<path d="M17.6656 26.8937C17.5375 26.8937 17.4063 26.8531 17.2969 26.775C17.1031 26.6344 17.0094 26.3969 17.0469 26.1625L17.4406 23.8594L15.7688 22.2281C15.5969 22.0625 15.5375 21.8125 15.6094 21.5875C15.6813 21.3625 15.8781 21.1969 16.1125 21.1625L18.425 20.8281L19.4594 18.7344C19.5656 18.5219 19.7813 18.3844 20.0188 18.3844C20.2563 18.3844 20.475 18.5187 20.5781 18.7344L21.6125 20.8281L23.925 21.1625C24.1594 21.1969 24.3563 21.3625 24.4281 21.5875C24.5031 21.8125 24.4406 22.0625 24.2688 22.2281L22.5969 23.8594L22.9906 26.1625C23.0313 26.3969 22.9344 26.6344 22.7406 26.775C22.5469 26.9156 22.2938 26.9312 22.0813 26.8219L20.0125 25.7344L17.9438 26.8219C17.8531 26.8687 17.7531 26.8937 17.6531 26.8937H17.6656ZM20.025 24.4031C20.125 24.4031 20.225 24.4281 20.3156 24.475L21.5531 25.125L21.3156 23.7469C21.2813 23.5437 21.3469 23.3375 21.4969 23.1937L22.5 22.2187L21.1156 22.0187C20.9125 21.9906 20.7375 21.8625 20.6438 21.6781L20.025 20.425L19.4063 21.6781C19.3156 21.8625 19.1406 21.9906 18.9344 22.0187L17.55 22.2187L18.5531 23.1937C18.7 23.3375 18.7688 23.5437 18.7344 23.7469L18.4969 25.125L19.7344 24.475C19.825 24.4281 19.925 24.4031 20.025 24.4031Z" fill="#D48830"/>
</svg>
