<svg width="77" height="77" viewBox="0 0 77 77" fill="none" xmlns="http://www.w3.org/2000/svg">
<path d="M38.5 77C59.763 77 77 59.763 77 38.5C77 17.237 59.763 0 38.5 0C17.237 0 0 17.237 0 38.5C0 59.763 17.237 77 38.5 77Z" fill="#69E344"/>
<path d="M38.5008 20.0195C27.5206 20.0195 18.6348 27.1189 18.6348 35.8661C18.6348 41.4255 22.223 46.2919 27.6438 49.1255L25.6572 56.3019C25.534 56.7793 26.0576 57.1489 26.458 56.8871L34.543 51.4201V51.4047C35.8212 51.6049 37.1456 51.7127 38.4854 51.7127C49.4656 51.7127 58.3514 44.6133 58.3514 35.8661C58.3668 27.1189 49.481 20.0195 38.5008 20.0195Z" fill="#FEFEFE"/>
</svg>
