<svg id="ic_share" xmlns="http://www.w3.org/2000/svg" width="24.716" height="24.716" viewBox="0 0 24.716 24.716">
  <defs>
    <style>
      .cls-1 {
        fill: none;
      }
    </style>
  </defs>
  <path id="Path_228" data-name="Path 228" class="cls-1" d="M0,0H24.716V24.716H0Z"/>
  <path id="Path_229" data-name="Path 229" d="M18.448,16.5a3,3,0,0,0-2.019.793L9.086,13.019a3.371,3.371,0,0,0,.093-.721,3.371,3.371,0,0,0-.093-.721l7.26-4.233a3.083,3.083,0,1,0-.989-2.255,3.371,3.371,0,0,0,.093.721L8.19,10.043a3.09,3.09,0,1,0,0,4.511l7.333,4.284a2.905,2.905,0,0,0-.082.669A3.007,3.007,0,1,0,18.448,16.5Zm0-12.441a1.03,1.03,0,1,1-1.03,1.03A1.033,1.033,0,0,1,18.448,4.06ZM6.09,13.328a1.03,1.03,0,1,1,1.03-1.03A1.033,1.033,0,0,1,6.09,13.328Zm12.358,7.23a1.03,1.03,0,1,1,1.03-1.03A1.033,1.033,0,0,1,18.448,20.558Z" transform="translate(0.09 0.06)"/>
</svg>
