<svg width="14" height="14" viewBox="0 0 14 14" fill="none" xmlns="http://www.w3.org/2000/svg">
<path d="M7.00177 13.9965C5.14598 13.9946 3.36668 13.2568 2.0541 11.9449C0.741518 10.633 0.00281656 8.85402 0 6.99823C0.00281656 5.14243 0.741518 3.3635 2.0541 2.05159C3.36668 0.739677 5.14598 0.0018762 7.00177 0C8.85724 0.00187801 10.6362 0.739795 11.9482 2.05181C13.2602 3.36383 13.9981 5.14276 14 6.99823C13.9981 8.8537 13.2602 10.6326 11.9482 11.9446C10.6362 13.2567 8.85724 13.9946 7.00177 13.9965V13.9965ZM7.00177 1.28756C5.48717 1.2885 4.03482 1.89035 2.9635 2.961C1.89219 4.03165 1.28944 5.48363 1.28756 6.99823C1.28944 8.51316 1.89207 9.9655 2.96329 11.0367C4.0345 12.1079 5.48685 12.7106 7.00177 12.7124C8.51637 12.7106 9.96835 12.1078 11.039 11.0365C12.1097 9.96518 12.7115 8.51283 12.7124 6.99823C12.7115 5.48363 12.1097 4.03128 11.039 2.95996C9.96835 1.88864 8.51637 1.28589 7.00177 1.28401V1.28756Z" fill="white"/>
<path d="M6.99824 10.1481C8.7378 10.1481 10.148 8.73792 10.148 6.99837C10.148 5.25882 8.7378 3.84863 6.99824 3.84863C5.25869 3.84863 3.84851 5.25882 3.84851 6.99837C3.84851 8.73792 5.25869 10.1481 6.99824 10.1481Z" fill="white"/>
</svg>
