<svg width="40" height="40" viewBox="0 0 40 40" fill="none" xmlns="http://www.w3.org/2000/svg">
<path d="M32.2607 7.6685L31.8121 8.26958C28.7107 5.95508 24.5184 6.31491 21.8561 9.14148L21.8561 9.14153C21.5558 9.46029 21.2993 9.78988 21.0146 10.1558C20.8716 10.3396 20.7214 10.5326 20.555 10.738L19.915 11.5277L19.3492 10.6833C19.3378 10.6663 19.3259 10.6486 19.3137 10.6303C19.2642 10.5564 19.2083 10.4728 19.1515 10.3893L19.1505 10.3877C17.7379 8.29805 15.8631 7.02895 13.3976 6.79065C10.864 6.54585 8.75495 7.45434 7.03069 9.36504L32.2607 7.6685ZM32.2607 7.6685L31.8121 8.26958C34.7087 10.4311 36.1863 14.7071 34.6046 18.6496L34.6045 18.6496C33.8125 20.6242 32.614 22.3559 31.1751 23.9681M32.2607 7.6685L31.1751 23.9681M31.1751 23.9681C28.0048 27.5189 24.2334 30.3586 20.1545 32.8694C20.0672 32.923 20.0175 32.9274 19.9969 32.9271C19.9777 32.9268 19.9323 32.922 19.8529 32.8682C19.3244 32.5096 18.7978 32.1594 18.2746 31.8114C17.0503 30.9971 15.8444 30.195 14.6741 29.3271C12.0454 27.3772 9.65337 25.1933 7.66843 22.6161L31.1751 23.9681ZM5.12311 17.8881C5.62326 19.6128 6.53832 21.1485 7.66838 22.616L5.12311 17.8881ZM5.12311 17.8881C5.01158 17.5003 4.94039 17.1236 4.86236 16.7108C4.82765 16.5272 4.79158 16.3364 4.75 16.1342V16.1321V16.1292V16.1263V16.1233V16.1204V16.1175V16.1145V16.1116V16.1087V16.1057V16.1028V16.0999V16.0969V16.094V16.0911V16.0881V16.0852V16.0823V16.0794V16.0764V16.0735V16.0706V16.0676V16.0647V16.0618V16.0588V16.0559V16.053V16.05V16.0471V16.0442V16.0412V16.0383V16.0354V16.0325V16.0295V16.0266V16.0237V16.0207V16.0178V16.0149V16.0119V16.009V16.0061V16.0031V16.0002V15.9973V15.9944V15.9914V15.9885V15.9856V15.9826V15.9797V15.9768V15.9738V15.9709V15.968V15.965V15.9621V15.9592V15.9562V15.9533V15.9504V15.9475V15.9445V15.9416V15.9387V15.9357V15.9328V15.9299V15.9269V15.924V15.9211V15.9181V15.9152V15.9123V15.9094V15.9064V15.9035V15.9006V15.8976V15.8947V15.8918V15.8888V15.8859V15.883V15.88V15.8771V15.8742V15.8712V15.8683V15.8654V15.8625V15.8595V15.8566V15.8537V15.8507V15.8478V15.8449V15.8419V15.839V15.8361V15.8331V15.8302V15.8273V15.8244V15.8214V15.8185V15.8156V15.8126V15.8097V15.8068V15.8038V15.8009V15.798V15.795V15.7921V15.7892V15.7863V15.7833V15.7804V15.7775V15.7745V15.7716V15.7687V15.7657V15.7628V15.7599V15.7569V15.754V15.7511V15.7482V15.7452V15.7423V15.7394V15.7364V15.7335V15.7306V15.7276V15.7247V15.7218V15.7188V15.7159V15.713V15.7101V15.7071V15.7042V15.7013V15.6983V15.6954V15.6925V15.6895V15.6866V15.6837V15.6807V15.6778V15.6749V15.672V15.669V15.6661V15.6632V15.6602V15.6573V15.6544V15.6514V15.6485V15.6456V15.6427V15.6397V15.6368V15.6339V15.6309V15.628V15.6251V15.6221V15.6192V15.6163V15.6133V15.6104V15.6075V15.6046V15.6016V15.5987V15.5958V15.5928V15.5899V15.587V15.584V15.5811V15.5782V15.5753V15.5723V15.5694V15.5665V15.5635V15.5606V15.5577V15.5547V15.5518V15.5489V15.5459V15.543V15.5401V15.5372V15.5342V15.5313V15.5284V15.5254V15.5225V15.5196V15.5166V15.5137V15.5108V15.5079V15.5049V15.502V15.4991V15.4961V15.4932V15.4903V15.4873V15.4844V15.4815V15.4786V15.4756V15.4727V15.4698V15.4668V15.4639V15.461V15.458V15.4551V15.4522V15.4493V15.4463V15.4434V15.4405V15.4375V15.4346V15.4317V15.4287V15.4258V15.4229V15.42V15.417V15.4141V15.4112V15.4082V15.4053V15.4024V15.3995V15.3965V15.3936V15.3907V15.3877V15.3848V15.3819V15.3789V15.376V15.3731V15.3702V15.3672V15.3643V15.3614V15.3584V15.3555V15.3526V15.3496V15.3467V15.3438V15.3409V15.3379V15.335V15.3321V15.3291V15.3262V15.3233V15.3204V15.3174V15.3145V15.3116V15.3086V15.3057V15.3028V15.2998V15.2969V15.294V15.2911V15.2881V15.2852V15.2823V15.2793V15.2764V15.2735V15.2706V15.2676V15.2647V15.2618V15.2588V15.2559V15.253V15.25V15.2471V15.2442V15.2413V15.2383V15.2354V15.2325V15.2295V15.2266V15.2237V15.2208V15.2178V15.2149V15.212V15.209V15.2061V15.2032V15.2003V15.1973V15.1944V15.1915V15.1885V15.1856V15.1827V15.1798V15.1768V15.1739V15.171V15.168V15.1651V15.1622V15.1592V15.1563V15.1534V15.1505V15.1475V15.1446V15.1417V15.1387V15.1358V15.1329V15.13V15.127V15.1241V15.1212V15.1182V15.1153V15.1124V15.1095V15.1065V15.1036V15.1007V15.0977V15.0948V15.0919V15.089V15.086V15.0831V15.0802V15.0772V15.0743V15.0714V15.0685V15.0655V15.0626V15.0597V15.0568V15.0538V15.0509V15.048V15.045V15.0421V15.0392V15.0363V15.0333V15.0304V15.0275V15.0245V15.0216V15.0187V15.0158V15.0128V15.0099V15.007V15.004V15.0011V14.9982V14.9953V14.9923V14.9894V14.9865V14.9835V14.9806V14.9777V14.9748V14.9718V14.9689V14.966V14.9631V14.9601V14.9572V14.9543V14.9513V14.9484V14.9455V14.9426V14.9396V14.9367V14.9338V14.9308V14.9279V14.925V14.9221V14.9191V14.9162V14.9133V14.9104V14.9074V14.9045V14.9016V14.8986V14.8957V14.8928V14.8899V14.8869V14.884V14.8811V14.8782V14.8752V14.8723V14.8694V14.8664V14.8635V14.8606V14.8577V14.8547V14.8518V14.8489V14.846V14.843V14.8401V14.8372V14.8342V14.8313V14.8284V14.8255V14.8225V14.8196V14.8167V14.8138V14.8108V14.8079V14.805V14.802V14.7991V14.7986C4.76673 14.7263 4.79173 14.6103 4.80153 14.5204L4.80154 14.5204L4.80194 14.5166C5.00676 12.5462 5.72063 10.8178 7.03053 9.36522L5.12311 17.8881Z" fill="#FE4F3A" stroke="black" stroke-width="1.5"/>
<path d="M17.8379 15.8848V22.804L23.7687 19.3444L17.8379 15.8848Z" fill="white" stroke="#231F20" stroke-width="1.5" stroke-miterlimit="10" stroke-linecap="round" stroke-linejoin="round"/>
</svg>
