<svg width="20" height="20" viewBox="0 0 20 20" fill="none" xmlns="http://www.w3.org/2000/svg">
<path d="M10.0002 6.4941C10.8923 6.4941 11.6155 5.77225 11.6155 4.88182C11.6155 3.99138 10.8923 3.26953 10.0002 3.26953C9.108 3.26953 8.38477 3.99138 8.38477 4.88182C8.38477 5.77225 9.108 6.4941 10.0002 6.4941Z" stroke="#231815" stroke-width="0.8" stroke-miterlimit="10"/>
<path d="M8.2902 4.88086H3.26904" stroke="#231815" stroke-width="0.8" stroke-miterlimit="10" stroke-linecap="round" stroke-linejoin="round"/>
<path d="M16.7306 4.88086H11.6152" stroke="#231815" stroke-width="0.8" stroke-miterlimit="10" stroke-linecap="round" stroke-linejoin="round"/>
<path d="M15.1154 11.6132C16.0075 11.6132 16.7308 10.8914 16.7308 10.001C16.7308 9.11052 16.0075 8.38867 15.1154 8.38867C14.2232 8.38867 13.5 9.11052 13.5 10.001C13.5 10.8914 14.2232 11.6132 15.1154 11.6132Z" stroke="#231815" stroke-width="0.8" stroke-miterlimit="10"/>
<path d="M13.4998 10H3.26904" stroke="#231815" stroke-width="0.8" stroke-miterlimit="10" stroke-linecap="round" stroke-linejoin="round"/>
<path d="M7.72476 16.7304C8.61691 16.7304 9.34014 16.0086 9.34014 15.1181C9.34014 14.2277 8.61691 13.5059 7.72476 13.5059C6.83261 13.5059 6.10938 14.2277 6.10938 15.1181C6.10938 16.0086 6.83261 16.7304 7.72476 16.7304Z" stroke="#231815" stroke-width="0.8" stroke-miterlimit="10"/>
<path d="M6.10943 15.1191H3.26904" stroke="#231815" stroke-width="0.8" stroke-miterlimit="10" stroke-linecap="round" stroke-linejoin="round"/>
<path d="M16.7307 15.1191H9.34033" stroke="#231815" stroke-width="0.8" stroke-miterlimit="10" stroke-linecap="round" stroke-linejoin="round"/>
</svg>
