<svg width="40" height="40" viewBox="0 0 40 40" fill="none" xmlns="http://www.w3.org/2000/svg">
<path d="M11.2498 20.3405C12.7189 20.3405 13.9098 19.1496 13.9098 17.6805C13.9098 16.2114 12.7189 15.0205 11.2498 15.0205C9.78077 15.0205 8.58984 16.2114 8.58984 17.6805C8.58984 19.1496 9.78077 20.3405 11.2498 20.3405Z" fill="#59CB90" stroke="#231F20" stroke-width="1.5" stroke-miterlimit="10" stroke-linecap="round" stroke-linejoin="round"/>
<path d="M20.1297 18.57C21.5988 18.57 22.7897 17.3791 22.7897 15.91C22.7897 14.4409 21.5988 13.25 20.1297 13.25C18.6606 13.25 17.4697 14.4409 17.4697 15.91C17.4697 17.3791 18.6606 18.57 20.1297 18.57Z" fill="#59CB90" stroke="#231F20" stroke-width="1.5" stroke-miterlimit="10" stroke-linecap="round" stroke-linejoin="round"/>
<path d="M22.7899 15.9102V4.91016L13.9199 7.55016V17.6802" stroke="#231F20" stroke-width="1.5" stroke-miterlimit="10" stroke-linecap="round" stroke-linejoin="round"/>
<path d="M22.7899 4.91016L13.9199 7.54016V12.1702L22.7899 9.54016V4.91016Z" fill="#59CB90" stroke="#231F20" stroke-width="1.5" stroke-miterlimit="10" stroke-linecap="round" stroke-linejoin="round"/>
<path d="M27.9598 24.4499C29.4289 24.4499 30.6198 23.259 30.6198 21.7899C30.6198 20.3208 29.4289 19.1299 27.9598 19.1299C26.4907 19.1299 25.2998 20.3208 25.2998 21.7899C25.2998 23.259 26.4907 24.4499 27.9598 24.4499Z" fill="#59CB90" stroke="#231F20" stroke-width="1.5" stroke-miterlimit="10" stroke-linecap="round" stroke-linejoin="round"/>
<path d="M33.4101 10.3301L30.6201 11.2801V15.9101L33.4101 14.9601V10.3301Z" fill="#59CB90" stroke="#231F20" stroke-width="1.5" stroke-miterlimit="10" stroke-linecap="round" stroke-linejoin="round"/>
<path d="M30.6201 21.7903V11.5303" stroke="#231F20" stroke-width="1.5" stroke-miterlimit="10" stroke-linecap="round" stroke-linejoin="round"/>
<path d="M4.92953 24.5101C4.92953 24.5101 10.1395 24.1401 11.4595 24.5101C12.5495 24.8101 14.4395 25.7901 17.1695 27.5801C19.8895 29.3701 25.1195 28.3601 30.0395 28.4001C34.9595 28.4401 35.1495 30.1201 35.1495 30.1201C35.1495 30.1201 36.1895 32.1701 29.9995 34.1901C23.8095 36.2001 19.4795 37.3601 17.8695 37.3201C16.2695 37.2801 4.76953 31.5001 4.76953 31.5001" fill="white"/>
<path d="M4.92953 24.5101C4.92953 24.5101 10.1395 24.1401 11.4595 24.5101C12.5495 24.8101 14.4395 25.7901 17.1695 27.5801C19.8895 29.3701 25.1195 28.3601 30.0395 28.4001C34.9595 28.4401 35.1495 30.1201 35.1495 30.1201C35.1495 30.1201 36.1895 32.1701 29.9995 34.1901C23.8095 36.2001 19.4795 37.3601 17.8695 37.3201C16.2695 37.2801 4.76953 31.5001 4.76953 31.5001" stroke="#231F20" stroke-width="1.5" stroke-miterlimit="10" stroke-linecap="round" stroke-linejoin="round"/>
<path d="M20.0195 31.5505H27.0795C27.0795 31.5505 28.7695 31.7905 28.7695 29.8805C28.7695 28.3905 27.2695 28.4605 27.2695 28.4605" stroke="#231F20" stroke-width="1.5" stroke-miterlimit="10" stroke-linecap="round" stroke-linejoin="round"/>
</svg>
