<svg width="40" height="40" viewBox="0 0 40 40" fill="none" xmlns="http://www.w3.org/2000/svg">
<path d="M20 34.2187C17.1878 34.2187 14.4388 33.3848 12.1005 31.8225C9.76223 30.2601 7.93978 28.0394 6.86359 25.4413C5.78741 22.8431 5.50583 19.9842 6.05447 17.2261C6.6031 14.4679 7.9573 11.9344 9.94583 9.94583C11.9344 7.9573 14.4679 6.6031 17.2261 6.05447C19.9842 5.50583 22.8431 5.78741 25.4413 6.86359C28.0394 7.93978 30.2601 9.76222 31.8225 12.1005C33.3848 14.4387 34.2188 17.1878 34.2188 20C34.2146 23.7698 32.7152 27.384 30.0496 30.0496C27.384 32.7152 23.7698 34.2146 20 34.2187ZM20 7.34376C17.4968 7.34376 15.0499 8.08603 12.9686 9.47672C10.8873 10.8674 9.26508 12.844 8.30716 15.1567C7.34923 17.4693 7.0986 20.014 7.58694 22.4691C8.07529 24.9242 9.28068 27.1793 11.0507 28.9493C12.8207 30.7193 15.0758 31.9247 17.5309 32.4131C19.986 32.9014 22.5307 32.6508 24.8433 31.6929C27.156 30.7349 29.1326 29.1127 30.5233 27.0314C31.914 24.9501 32.6563 22.5032 32.6563 20C32.6521 16.6446 31.3174 13.4279 28.9448 11.0553C26.5721 8.68265 23.3554 7.34789 20 7.34376Z" fill="#231815"/>
<path d="M15.9375 26.7188C15.8347 26.7196 15.7327 26.7 15.6376 26.661C15.5424 26.622 15.456 26.5645 15.3832 26.4918C15.3105 26.4191 15.253 26.3327 15.214 26.2375C15.1751 26.1423 15.1554 26.0403 15.1563 25.9375V14.0625C15.1555 13.925 15.191 13.7897 15.2592 13.6703C15.3274 13.5509 15.426 13.4516 15.5449 13.3824C15.6638 13.3133 15.7988 13.2768 15.9364 13.2766C16.0739 13.2764 16.209 13.3125 16.3282 13.3813L26.9531 19.3188C27.0749 19.3865 27.1763 19.4854 27.2469 19.6055C27.3175 19.7256 27.3548 19.8623 27.3548 20.0016C27.3548 20.1409 27.3175 20.2776 27.2469 20.3977C27.1763 20.5177 27.0749 20.6167 26.9531 20.6844L16.3282 26.6219C16.2085 26.6875 16.0739 26.7209 15.9375 26.7188ZM16.7188 15.4V24.6125L24.9594 20.0063L16.7188 15.4Z" fill="#D48830"/>
</svg>
